<mxfile host="www.draw.io" modified="2020-03-07T12:05:34.963Z" agent="Mozilla/5.0 (Windows NT 10.0; Win64; x64) AppleWebKit/537.36 (KHTML, like Gecko) Chrome/80.0.3987.132 Safari/537.36" etag="QH6oOehfVZZ-_CKamLLV" version="12.8.1" type="github">
  <diagram id="NJMETjBSvgo6AyTWYR1J" name="第 1 页">
    <mxGraphModel dx="1024" dy="517" grid="1" gridSize="10" guides="1" tooltips="1" connect="1" arrows="1" fold="1" page="1" pageScale="1" pageWidth="827" pageHeight="1169" math="0" shadow="0" extFonts="Cookie^https://fonts.googleapis.com/css?family=Cookie">
      <root>
        <mxCell id="0" />
        <mxCell id="1" parent="0" />
        <mxCell id="4KgPTPjGrruZlJ7_TV73-3" value="" style="shape=image;verticalLabelPosition=bottom;verticalAlign=top;imageAspect=0;image=data:image/jpeg,/9j/4AAQSkZJRgABAQAAAQABAAD/2wBDAAIBAQEBAQIBAQECAgICAgQDAgICAgUEBAMEBgUGBgYFBgYGBwkIBgcJBwYGCAsICQoKCgoKBggLDAsKDAkKCgr/2wBDAQICAgICAgUDAwUKBwYHCgoKCgoKCgoKCgoKCgoKCgoKCgoKCgoKCgoKCgoKCgoKCgoKCgoKCgoKCgoKCgoKCgr/wAARCAEZAO4DASIAAhEBAxEB/8QAHwAAAQUBAQEBAQEAAAAAAAAAAAECAwQFBgcICQoL/8QAtRAAAgEDAwIEAwUFBAQAAAF9AQIDAAQRBRIhMUEGE1FhByJxFDKBkaEII0KxwRVS0fAkM2JyggkKFhcYGRolJicoKSo0NTY3ODk6Q0RFRkdISUpTVFVWV1hZWmNkZWZnaGlqc3R1dnd4eXqDhIWGh4iJipKTlJWWl5iZmqKjpKWmp6ipqrKztLW2t7i5usLDxMXGx8jJytLT1NXW19jZ2uHi4+Tl5ufo6erx8vP09fb3+Pn6/8QAHwEAAwEBAQEBAQEBAQAAAAAAAAECAwQFBgcICQoL/8QAtREAAgECBAQDBAcFBAQAAQJ3AAECAxEEBSExBhJBUQdhcRMiMoEIFEKRobHBCSMzUvAVYnLRChYkNOEl8RcYGRomJygpKjU2Nzg5OkNERUZHSElKU1RVVldYWVpjZGVmZ2hpanN0dXZ3eHl6goOEhYaHiImKkpOUlZaXmJmaoqOkpaanqKmqsrO0tba3uLm6wsPExcbHyMnK0tPU1dbX2Nna4uPk5ebn6Onq8vP09fb3+Pn6/9oADAMBAAIRAxEAPwDcp+9fWjyH9RR5D+orjAlyCcAijIPQ1EiHPWnqpByaAHUq9R9aSlXqPrQA+gHBzRRQBJRTd59BShgTgUAMqOplj3H76j696HspkjEjEbScA89amU4wV5MqMJTdkiMRknGRTDBIDggfnUxXAyWFNLKTwM/hXnVMyorRHr0Mpq1+hMLK4I+7j8akNhEpxn8hSWguZGLAtge1aFlp01yx2gnA6KoB/nXDLMpt6I9mGS0Yr3jLOnPn7361KmjMy/Mf1rXh0WRwVIYMOzLWnZeHLub5PL5z3FL+0az6FxynDJaM5y28OJMdzgtzWhZ/D+S6TfHCSucbjmumsPDM8TiSUoADwB0NdFaxwwx7QuPYGhY2q+hDwNBPU8+Hwwmb5myPoDR/wraSEHZID9a9FwnQH/x6k8mJjywHHdapYqsJ4GhfVHmQ+Hus4AWRCT0G2sfXtEvNHvPsk5RmCgtgZIzn/DNexW2kalqWpQ6Zo0Pn3Nw4iiRR0Ynr9Oc15Z8T7HTtI13UdZh11ZhZzfZrlg2FDqOfrySPwFdFPFVFG8jgrZfQ5vdMCUfOSvPPamhlJA9DzUVlJJdj7TaTrcQuMh4yMAfnVhQjDccDjPNenTqqUUzxq+FqUZMilt/Oj3iQDHWo402LjNTmIgFQaRYSerc+1anMNfGNuOKbgnoR+NOkIJ96ilkKEAU0rik9C/RSb19aN6+tIZGkyFgOalqBLZ1YEkVPQAUA4OaKKAJKKaH55p1ABRSQutwSEPTrmmzzHz0hijLO7BVRB94kgAD160AtTS0bSxql8YpHAhiUvPN0VFHvWfqHieHWb17bSIwLG3JWA93I/iqz48vJvD9qfhpYX0f2qUCTVpYuTGMfcz6+1cZ4o1yDwboW6C1drpkxDGP5142Kq1atV04n0uX4ONKkq1RaG7NrWm2pIvdRhiC95JQKn0bXNAvrvyodZtWJxwlyrfyNfPifAb4qeKtQk13xr4khjikk3Robp2Kr6beAD+Jr0nw54M8P+DYFj06BpCVG6WUA76KOUVazvIqtn9GhFxgewWt74Vjh8u41lFPH3ELfyq5H4u8GWaDZJNIw4+SMgn868vi1fylwkOM9wOn60j65MybHOBnptFetSyOEFdnlzz2pUejPVf8AhZ3hxADDpsxI/ibFKfjJ4et12y6bNn/ZavJ/7XY55J9v8mhtXwMGM/XNdEcno9Uc0s5xF7Jnqr/HHQB8qWE4HvioZPjdpIbEVncEHrmvLjrJPPIqKXVA2MN+tH9j0b3KjnVdLU9dh+N/hxZgbtJYl4GcetbGi+N9N8SB59C1ATJDJtlweVOM814DrXiBNL0ua/nY7Y484xkk9gK9V+Bfg5/Bfw3tr3VCpvdYna+uVzwoYDanPtjP4152NwtPDrQ9XLsVXxlTXY9c+E2tDQ7nxd8Sr1Qbbwj4dlkh3HCG6lGxB9QDn8q+V/El/dz6MumXEjSveb3I/vvIxYnH5V9H+P5n8FfsKtfytsvPiF4qQwq4O420ORxz0+X/AMer5Q+IHja28A6JqHi/UEHmQ3jadp3zZDTNj5lz124xXmzoupZLQ7IzUak5PoM0bxXF4euR4V03W7cX8BzNYpcLvAxnoeSPpXZ+HPFEesIEvIPKlyVZhIOTXxjL5GtaoLnx0P8ATZpMWmq27lZF5JGSMGu98LfGbVvhs6WXxG8y7slcLbatbrtAUjjzBnj6812qlOktDyqmKp1pO59Y3No0NuJwwZTjaTjJzVZi0JEhXtXGaR40udRa0vHvQLRkQx5I2sG/iB7iurtdRg1IEwMPl681vRr3fJIzr4Rey9pHYV8Z4qCSQvVhynLnPviqtdkdjyJa6GhRSbx6GjePQ1JZLRUOX/56frRl/wDnp+tAEnnJ70ecnvUNFAEyy4YHI60huZAcECmKrbtwI601sjhlH50ASWtwkEjqyt0G0qOPxzW/o95pvw78Oz/HLxLZLcWtmTD4dtpBs+33jDGR14Q85xzms7wP4K1P4l+OdK+G+hllvdXl+WUD5YIU5klbnhQvep/G0+kfGL4g2ukeFw6+CfBObPSFkPF5OMb5+MgjIrlx2JVCjZbno5bhXicTFdDG8FeGbycy674gnD3F2TeahO7dMnd1/pXK6/rVt4h1+fUnGY45NsAA42gDFeg/GPWLTwz4UTRbIKt1qbgAKedozk+uDnpXlscSW0QXd90cVzZRQdaTqTPXzzFxoUfYQ0L329bjd9oTqRjHak+2oqKmSVUcc9Ky5Lnech2H0UUjPITkSE/WvpoxUdj4mUYtam0ZUU/Kf/HqjlfJ3Z/WqZu3HUj8qGuSeC61tzMUYFpJwmcjP40rXacZSqE1xMp2/L+dItxuG+SUA9gKlyZVlcticyrucAHtgUyWSHALMeD1qvJLE2MSMMZzims8Ij2ZYsx43H5cVUWrago3L2maN/wmnijS/B2wtHcXSyXOB0jUgk/mBXv3jK8W00ieOyTAhiEcIzx0wB+bCvK/2Z9GS/8AHmp+JpvmisrUxQEdN5IJ69+K9jstIbxR4v0PwsoB/tPXrWEjHUGdCePwr5fNK6lW5Uz7zJcO4YSU32Ln/BRu8TwD4R+E/wAFYWw+meERfFcfelmAwp9Dk+lfA37VerST+N9I+FtmS8Ph+zWbVHZuJLuQ5kb/AHhk4r7s/wCCltzBr/7c9ppty2LLwxpMNzeo3eCBPMCr2HKjjjrX5h3ni/U/F/xF1rxjfzFhqN68iDdux6D8qqjFe1SZ59eqo4du+ruXdcs4LnTZLQzMCzZDj7y/Q0+K5jk8MT+H9SH2hWhKqsvR+nBz6dqrPcebhmbH0rP8Wz3Nhocl9aBd8OGTzAcZz0/KvVpRg6iTR85NtR5kfenx/wDCOg+C/gl8EtH8P6baw3F58K7WeWOMZZ5t/wAuSQMnpXJ+A9YlutOc3EakhtqzKuC5Ht2rpP2rddSPwX8JJrpyk0nwg0m5hjHJt5HjVtoJrjNKv4tJ8PaY0kqK32sq2xOW98183XrcuZNLY+ywdNSyXmktTsZ4wsbMOOOlUyyg4zV64DGDc5GG6HPWqUsJVuWr3ISuj5CatNot7x6GjePQ0yigYu9vWje3rUHmyf3v0oMshOd1ADvtMvt+VH2mX2/Ko6KALCvukAD9TjFPMixMTLkBVZmOOgHU1VRkQhyCdpBra+GvgrW/jH8TdF+F2lxyY1W/UXkigjZCDlsnsMZzSbsOMXLY6TRbm6+Dv7MGofFy2yvi34sTf2P4LA+/Z6ajsJ7jHbcpABHpUvgnwvp/hHw1aeHdPXIjhTczjqc5Zvz/AJ11H7RWraT4y/aDmTQbRYvDvgrTYtE8NW8QwkaouJXA6ZYgHNYt1NK9jItk5M3ksqb+MEgY6dsivlsxxcZV0r6H6Bk+XOlg/aW1PE/iz4m/4Sbx1dPC5+z2beVDgdx3BrmpZ5MhieAMAFq6C8+EnxOimeNdBM+52dpF6Ek/Wlj+CvxMuf3j+HQM/wB89K9zAYvDUKS1PmMzweMxOJfuHPefF/eqNdXgIztb8h/jXWf8M8/FHvHZD2Nyf/iasf8ADOnjwjOdNHsbg/8AxNdzzXDPqeX/AGRjpO3szkZdRyuMk1EdTVThsZ967hP2aPF0q75NbtUOf71Kf2XvEkpLS+JrRPwz/Ssnm1BdTpWR4+S+E4STVh5nzEfhUUmsor8jnHSvQ0/ZQ8RTKRJ4505fUlHqOX9j3XJSWT4iaYDj+69T/bWGXU0/1exlvhPPT4hij++SM9OajvPEVutqZ3lO1T8yj+P2r0r/AIYxd/8AXfEi2YenkHNXdC/ZB8NaRqkd54i8UPfQxkN5CREKTmlUzrD+zdmbYfh7GSqK6Om+Avh1PD/gSGdoTHPfOZZMcZz0PNerfBSBb39or4e2VywKT+K4GfPGQDn+lc6I7aGFY7QqsaALGi4wqjtWp8OdRtNF+M3gnXryQRJY+Ibd5JpDhUAbkk9u9fKPMIVcWr9z7aOXSoYFwj2Z5X/wVo1/VPCHxt+O/jaSRknsPB0NtpxdyArybVJH1UHFfnX4BE7eHLG8nba8ttGZB/eJUEmv0B/4Lu+L9A8SXfxN8QeCLuC+hvJNA003FnJvQyNvL5PQjjtmvgPQY3h061iUgYjUYB4GAK+lw84ylzI+IxdKUIxizbEboBkVV8TSS3Ph/wCxx2c0pubqKBY0UFiWIwBz1OcfWphPM/IB25wM10PwZ0k+Mf2iPhp4CuYmeLUviJottdRxAEtGbgFyMkfwjmvZhyP3meNKK5D68/br0GG0+J2h+AHnCjw/4M0fTUCn7pigXeP8P6V5pq16I9C0hYw+6bfNGGXt711v7XOvyeOP2nfGOq2t+Gitdcms0BP/ADxPl8Y/h9P6VwvjDx54d0P4k+FfhhdxEzXOhMfMC52v1wcdPxxXwdecv7SbT6n6NltGMcrUJLoepaDqR1LRI5mcMdgXpwKVo3X7xz71zvww1VZ7W50/OEhkJjYfxEYyP1/SumnOFC475r6zD/wkz4PHwUMQ0hsrMHwCfzpu9/7x/OnM0LHJU0yYp5ZKKfxrU5goqI3Knv8ApSC5UHndQA/e3rRk+pqB7wsMAkfhUQuGPG9s02rA7IswXExlEZwQTzk13nwe8X+KvhD4otPFvhJ7dbmW0miuHuVzsVxtAHo3vXH+C9Lh13xZZ6XIyiAFpruZ2wscaqWyT6YH6iuYX9rrT7rxRqWlaP4OlvY7S6kjW7VsRllJGM47AVx4z2jptQ3PUyt4ZV1KtsezRuA5mcDzJXMkp3ZJYnJP41Yjky2SwHHevF7f9p/xZMdz/D2EHH/Pxin3H7TnidWIHgK1XHY3Oa+SqZVjakuZpn39LO8tpRUU1Y9q+2iP5Tcsv0NDXrOMC5kbHTHevCbn9qfxxEpMHgCwIHdpqpf8NgfEdG8tPAunKAOSXPFEcrzC1lcqWc5U9z6Di1MbclTn3FRS3sZfd5Q/AV84ah+118TbZd6+E9LJ9Durn7v9s/44JJiHw5pCL/1yNJ5PmMnoR/bmVR6o+r01FEB/cZ57jpTv7UVf+WRH0FfJv/DY/wAfpoi1vaaVAT0C2+c/nVP/AIa+/ajaQra3uloD1zYhqFkWZPSxm+IcpX2kfX39qvuykefUEUHV5j8vlBTXx3P+0l+1Jf8AzHxlZwjv/oAqpL8fP2ipnDXnj2PI4zFaAVouHMykQ+JspifZ39qSli6nGR2wcU9dRvGXekErgjk4r4wj+OHx+ZB5nxCcH/Ztlpk/xm+OkxH/ABcu7Rm/ugCr/wBXMyS1EuKsqjqj7TS6vGU/6NKPTOBUd+J5rOVJ4FChct5uFGM/oa+NbLx78d9amAvPihqIjDclSBWndXXxQ1b4e6vJa/EbU11OykzG3n7Q8WPbvmoXDWMT5rjfFmXNep6f+3F4Ps4/2UPGsmgwKGs73SNWYHqYo3ZGPfjLDH9K+KtMcSWUBcAfuwePXAr7H+E93d/G/wDY+8X+Hby9a51C48C3No8khyS9tIJlH125/I18T+HbmW402NJZAGVdu3Ppwf519Dl9CdGmqc9z5fN60MRVVWGzWhvWmqRxDZJknHoP8a9u/wCCanhmw8Zf8FCvBN3dRm4tPC+ial4jvZVGUi+zQ4Vzn0dlP0P4V4Lb2yTvkgDGOvFfTH/BLi2Ph+0/aK+OF0oht/Dfwml0G0uIxnE17KigD3xGM/j1r2qsoUsO2+h85TTq1YwXckGtL4r8V+IfEqtl9S1e5m+bqGeZmOfwxUGt6tDaanc6jBoUNxezQiGG/mUF4ExyF9Kz/CZbTbNJLn5pJWLu0fTJz61NqUjThiOG9RXw1NwniXLzP0mUpUsKoroiv8PfH95pvxq0n4c28BaK60eSeZiedw4A/Efzr22WUzNlu1fPXgHT2T9pHTPElzPuki0trVI174719Bzyqrsc4y3Q19XhpP2aR8PmC56rkNMijrTJLhdpGKY8qjB5/Ko5JB12n8q6DzhvnJ70ecnvUZicEDI596DDKM/d49z/AIUroB1RkZGKeWAODT9PsLvU72KwsU3SyybEHv6/SmtwWrKfxc8ZWPwV/Zx1nxYz7r/xJustN/vLtxuK/UnFc38O/gRrngz4faaNdsvLuLy0W5uQU6yyLuJPHXBH61B8YbO0+Pv7W3hX9n3wy3neHfCwivNTkZ8x4RQ0nTPVuOcdK9w+J2uJeakyQTExoQqJjhVXoPy4rswtJJ3OXGVlCHKeYWfwylJOTgdyBS6r8Nnt4BIrKzHqSBXa2d1bBS5IwexNNvrdb2HCMPauidOLPMVeaVjyS+8H6kHaOJARnpkVQT4XanqdwHl1DyB0wo616Xf6DJ8xRAee4rM+w6lBKQq5wc4xV06aSG8TU6NnMv8AByytrJpJ9WLHHUjpXPXPwwtjp17q1zrgiisYWl+ZPvY7V6LeXFzNEFZOnUgHmsi801NStpdPuoiYJ1KSr6irUYmft5y3Z438BbCw+LnjuXwtJrJiR4WlSR1xgdhXsOp/s2waRZG8g8TQygcOowCKzvh98NPDHw6lkv8Aw/YIlzIcPKWJIXsK6Zbq9umZWkZgzc+9aRSF7RnN6L8HtFecRz6gSpPGc4rrH/Z18NT2yzRTknbzirnh/RrhzvcABeg7122lWzW9gxJyMDGKpNW3K9rLueQ3PwG0yOZkhlb86fp/wF0Zpw11Ifl+7Xo93H5c5BAFRooZxmnZsjnfc5iH4Q6BZr5cbHDY/hrV0D4NaBe3y2D3bolxhXA6MD2NdLa24kADJnFaelRLa3kMqIu4TLsz9awqRTiy41JqR5J+wpNb+H/i3rvwcviPJtvFNzZyowxmG6jlg/QutfHuo+H5vCPjfxF4Ovotsml63cWzgjkYkOB+lfWtxLN8Nv28vFwshj7Xoket2nlj+KPZLkep+Q14z+3d4ZtfA/7afjK1skUWutyxarbBRgGOeJJAR7fNXzcJKOKcZdz7GMvbZbGS3Wh5ogfJkGOgPIzz6V9O/sys/gf/AIJO+KvFESGO6+JHxtNgHPDS2lnbgYA7qJAx9DmvlvxJq0eheGb7VGbb5cL7SB0OwhR+dfZnxi8Nn4Sfslfs7fs1PbPDeWvw3XxTr8eORf6jIZCGHXgN1PJ9hW2bVIUsJK/YjKsNOtj4Jdzz+0t0htIo8fwdKr61dNaWMssduzOiZXBzV1/ML88Fj0/wqrr8RXQLlwVLFCFw2D6V8VgLTnc+8x65IWQlpow8I/Ez4deNrtwbLxJazxow52SocHJ9D2r2O4mbefmLcnquKzPiJpOmXf8AwTm+FHxMm0dUvtO8fxWCzxf6ySN2+YnIGF5FSrdCMCPc2QOfmzX2OHg+RHwOKblVZbZxtORTGcEYFK33ajchF3N6dK0OIHIVC2fxFVjIxBw7n8awPiv45bwN4Yj1KQqs1xcGKFW4yP8AGup+G3iHw14i8P2skwtpbi6wpEgDFWPbmuLFY2OEkkz08FllfGQcoLYrzyPGx+fI/wA/40x/GEfg+2n8RmTEtpbs8QPr/wDqqD4j+IfD/hr42SfA+AMNUt9Ngu5sHICyZxuPY9K8j/aI8X6jZeD77T7KYmS8mWygjX7xkchePfmtsPi1iIqSCpgauEquM+x6Z+wLoDP4f8ZftAawuJde1BrHSZXHW3jJLMD6E5FdVrertcXcsysfmOQM1uaH4WsfhD8FtA+FNiwH9kaesEpiGBJKeZGP/Aia5G/X5yxyeDX0VGNoHyuKqe0qsIr64ebZ5zYz0rqNGZvse5ueK5fRYGmuc4zz3rrbdFt7QKRyRxWtkcbWpSvWYJtHQmn6bFDKm44z0NMvj+7z71Usrr7POfrS0toS9i5feHsrwc59qxrzQvJlwwI444rsLG5SeFSp5xzmmX1pFKAWTOT2qVfoSlc4v+xTHnYoyTzkdansdNWP5pE6Nxg10cNgjbi0S8DuKo3tssbbgBgnoDWl2i0iWxVV2lQBkc1burpoIQofjGcZrNhvgowBggd6bJIzgB3JFICWWd7qYKT1PrzWnplhE5y6E49TWTbOPPUle/auj04qYMYx607saWhNDaxxkFQcfWrMYWGZZs8rjaD0zSR7WByPpTJIxKpTnr2pPUjmR49+1BZ22hftXfDPxctyYofEOjHR7+QHHVhH1/3ZT+VcJ/wU10l7nxz8LPis0YRdZ8EnS7jCfen0+ZrY7j/e2xjP4V3/AO3rara/CLwZ8SFt2abQPG1urSr/AMs0kDdfxT9Ko/8ABQDTY/GH7I1l8Q4MSr4X+JDzxrGMslpqtuksOB/d8xZD+fWvm8U4wxSZ9lk0pVsulB7rX5HyrZeCLr4xeNvB/wAE9MIWTxf4u0/SZDuA/dy3CB2yemFH619z/tseHvF3xP8A20fE0/gnRJrnRNEtLTQtOdV/dxx2cEcWFJx8u5Sc+/SvhvwH9t1X4w+CriwvpbeK08Q2100lp8roVbPBXpX6mWkXgmTWwmp+NYrSK6k3PPdXSoFzz8xJ6+tfO8U5nGlQUe59rwxk8q1X2i6HyR4n+F/xf0OW0u7fwTdXdsZyL3yVz5MY6sfSsvxRCn2GdCqncCpzwFwBX0/8ZvjX8Kfhlp1/oHgfx7Za3fTxGNX0qVpA2Rg5OMdcV8i+G9ZvtSvdRs9SiRo0kZgsfzcEc5/HNfM5PjlVxCgfR5rl7p4RzbPYdUuNb1X/AIJp28+sWJS10rxVFJpzLk/dYAs3GAcDtWfDcrKgxLuGMg1N8TJfHvgz9i3QND0+VbjQvE11LcmGcnMe1yCEwCM5x3rF0+8aK0iMbceWP5D/AAr9OoPReh+Q121Ul6nU3LuFwG6+9UJZZPO5c9fWpLuUBcDORUEyMyhgR61Ric78a/BFz4/8Kwz2heS60+cPFbqfvduPwryXRfG/iXwnrkNjprJa30N1GWtLolW4IyR617nLcTIdyzsAAMbW5rD8UeDfBPjRQnirRVnIB/fxnZMOc8MPevKx2X/W5XT6Hv5TnEsDHla0v/kdF+0L8O7Pw7+1jdftX6hr1tJpusaBBb2NlDIrO8vkptyAexry34Z+HpPjJ+1h4X8H3g3abo9vL4i14norRhjGhHoWArH1v4Ra54K8aWHiQfEW+13Q4JDLNp2qyFpEAzjaSSABgV3/APwThtbXWtd+LHxPubkvfyywWdoXGdloOWC/jVZXhXh1yN9f8gz/ADBYpupBW0se0+J9UTV7+WZN4/eEYb165/Ouc1HT2lcBSRk8gelbBie4fz3PBXJGeeadBbRq+/GfrX1sVZH5/wA0nJsp6HpKW7byh7YzWxOcAL6dKInG0LsHHoKJQrHlu2aondlC8wYuvesqRiJflPet+4hjaLBUdayLqzKTYBX60BZmroUkuVCHOWx0robq2xCvygbhycVj+GLAiUOy9BjrxmumlcBRG4yRjnFRLQOW2xiPFJ5bGRQOOMCue1q4ljYIhGM+ldpdaeHtTKo4I9a5bXNKUkuwPByPmrWnbl1EYysSxwPyqeMs5wvNV5lltZtrgEE445q3bHLKAOT1AFSO1yezhxIsjDvW/pg/d8HHNZi2xRULEcntWxpsahVBHvwKiUknuPpY1LZN0eNoA6cikt4VabG0YxzitXwz4a1HxJdrp+mRhnbBIPGB612Vh8DdTnn+yi4UTAfOADgfjisZV+Rj5JHg37Wvhq38SfsheO9MGZTpqWuqIUQE4jZicZ9A2T9K4uzQ/GP9hvxb4e06MS3t/wDCiy1u3jJ3F7rTZmRtn+0IpAcdcLXqH7UXiDwd8LvhR4q+GWu3O/WvEdhLZWENuwkKK6kFmBIx26Zrwj9gz4taV8PPh94S0/4nTiGyj1jU9A1iSSPKw2t1ZmI59MOA2PwyK8LM3T5lNH1/DN3OVNrRpnjXwD8V/sY+GJLe6+KnxdvYddtkjMVjbwmUB9oyAf4T9K6rxN+0x8P/ABtrU+m+BPh94k8S5fbA8rmNW47k815z4a/ZhsPh6t9d3Hh22N9c30spmuIt8gj8xthBYEr8uOhrvvAFpLp1tKBCsIzysYxz+VfHY6jRxdVczvY/SMqr1cBhmktSxaav8Z/FmmppDeGPDvhC0Dnf9mhMlxjv83A9/qK2/DPgLSvC2nTx6bc3E806MZ7i8beznqcdeM0tou6ZS4BBzu71fv7uTTNB1i+aXy0ttNllclsAYUnr+ldeBweHoTTS1R5uNx2IxEXFvT1Pd9M8W+H/AB//AMEc/wCzjFG2u+EfiDNYvPK3zxws4kxjHTB6143oU+LONEbOIxzXn/w9+N99ZfAe++FkEoXTvFmpRak0oOSsu0g4/M9a7jQS9vZxFn3OsQUseM9P8K+qpu8FY/P8TG1SXqddISUPPWq7lwpAJ6cVJPu7EYFUrlyWLB/oAa2Mxk25V8z196oSOFmUseo9avXE4MO1Qc4qlPGGOXIwoySaipP2cLs3oUpVqqjFHJ/HrVrPRfBVxcXUpUC3fOO4INcB8HviB4l+FOlw6l4D1GOAXdoovIZBxNGTnnnmvo4fsyfDv45/DUHxnq19ZXl4rLbzW7fKqbs5Irz3Wv8AgmR4jtNOFn4T+PMk6xRhIkktlDIoPTOfSvOo5hSpzvI97EZNWqUbxF0P9q3xda2qw694OtpIeiSWwIdv1rpNF/au8A3Mqx6z4c1K2fHMyqGX6YrzO+/YV/ad8M2rRad4utbvauFMloSD+I5/SuX1f9nf9u3wmxOj+GdN1WD+GIwuuSep/wAK9mjm2H5Twp5DiYvY+n9O/aB+ElxGCNadcnBLxkYq9B8YPhncOEj8W2rZPTd/jXxzP4O/bo0di2p/BCOVeriCB+lVIPG/xQ0W62eNvgVq8CrgO406T5R68Ct/7Twz2MHkWIXQ+3T8SfhtcRfuvFlkpz3kqWx8Q+C5Wyvi6yPp/pNfI2k+J9N1OLB0uZXbpEbV+P0qzJc/Y4DO+j3Xy+kT8/pUSzGk9iJZNiIn2dpeteDIody+K7Ec/wDPerQ8S+EUPzeLLHr2uBXw1B4stblhDpnhbV5iTxshkwfzpW1n4gbCtr8MNYlY9Nlo5/rWTzGlbUhZPiL7H3DdePfhzHF5dx4805XA6Ncc1zWt/Ef4XMzRp8QNLk44ZJSR/KvjTUdc+NK3BTS/2cNXuSejvbnJ/Ss3/jLS5JMP7MN9GNoH+pY/j92qWYUEtzWOTYiS2Pq/W/jL8M9PkEp8RQybiRiPtUWnftF/C2xd3nuJrncBsSEZwa+YLL4e/tkXMpl/4Zz1EqSMbo8V23gz4G/tZ6zMGv8A4NSWS7cLI0u0/jkCs5ZpQi7XNFkGMnsj2e7/AGsvAtoFeLwFqcjclGxx+PNQXf7Zeuyx/Z/D3ge1iABG67PP4etc1p37Hn7Q8939ovp9PjiJGYpnAH6ZzXoPws/ZRe212P8A4WwFv7JF3C0srlomVx0w2OnrXNPNsNGXvM0hw1jZu9jH8IftifHvwzqMl5pMekWwkTYS0W8r9PSoNS/an/aV8UvLaal8S5LaGQlDHZxeWefevW9T+BXwqvdKNnp3hyTTpHOPPiuCxA7jJqLS/wBm74W6Xbqpt7qdurNLL2HQVx189wrTsepQ4VxPN7x846ro2ravqx13WdSvNRujn97PJvP0FYPgfRdZsfC2qeHNd06SKG/8QvexJcR/MF4IIB+lfXukeCPDmmXCQaVo0K7XXHmDJP6V418dfEdlrfxRurGxgjWPTz5G2NOMjn+dfM5lnsatNwR9nlHDf1WoqjOK1nWdX1pTq2tODcrFsYqMDCjH+FUbWzNl4et9UZTm8l4OOlbGsW4m0yUZALghj35qHVl26fZWCgBbeMDb3B/xrzsFU9rLmZ6mZKFKlZDtJtV8lZJTye1ZXx41T/hHfgR4s1iNTvm05raEY6l8L/XNb2jphAhGM9MVkfG6yh1bwQNBm5S5ulLx9iBX0uEXNLU+PrSfK2eHfsv2viHxToWkafrmktDFZW6lGJxnA719J2Sx44YYCgCuO8B6JYaJEsFpB5e1AvArrbUYT5SBX0VJJQPlMQ7z5u51FxnyjiqUqkLuJqzczgLsx1qrM5KEGtFuc5DKSP8A69YfjDV2tNHnSE5Zo8LjqSegrVvXOwk55BzisS30uXxF4z8P6AjMzXurxoRnqo+Y142cYn2NHkTPquHMG6lfnex9MaJov9g+GNM0hyQYNPhBxxg7QT+PIqaFsXAIVfc7etWdQla7uZJQxALkAegGAP5VCkJVwxxxXx06zeqZ+hxpQStYtRS7cMB064FTQ380ZBjmYH1zVTc3rU8aMUGSKyeImtmx/V6c/slr+1b0HAnPuCOvtVo+I76VPLlm89SMEy26t/Os1VIOTT1ZlOQT9KpYqun8RlLDUWK0GlSOGk8J6S2D20+Mf0qRl0gja/hbTgCOR9kjI/lSbmzyQfwpMt6j8qv69XS3JeDotaock0MIzbaNp8YzwEs0AH6U6PWLlWwlpAue626DHv0qPAxjAprDgndz2pLF1nuxRweG7FuPW9UibMboD2IiXI/Snt4h1dxtN9Jn6AVQT7wp9P61V7miweHWyJpdU1aYbZNSlIzyNxppurxwVe7kYe7H/Gmq4zgk/lTsQZxk/WsZ1aknuyo0qUNkMLOyeXuJXsDTVAjO5Bz3yc1IFUHOKNi+lYSnVb1LhTikNl4jwPWoyHK4OTx3NSuf4RRsO0Pzj6VDlJbm8YRRR1G8h0jTrrWbnpaW7SDI744/Wvk7T7q61HUL7V77JluLuSSTP+01fR/xs1x9H8FzW4+9dSLCw9c84/OvLfEvw7j8KfCyfxfIP3k8i9R0GK4K95TPQpNKKOY8LWEvibUbHSVUuL29RAMDKDJ/wqp8Qb/Tr74haoNHiVLSC5NvEqng+WAM/ic10vwUhGi6ZL421FkYaPpEswyeN7Aqp+uW4rgtChmvWS+uB805LyA/3ixJP45r28rjzI+czhWps6XR4N0IZxyRWX8Q4hLLbW4QHYc/SuitbV4okYnletcr4rnefW3Vs/LjAFfZ4Omo6nxOJmo03cdpSgJuHB78Vr2uNvSsnThgkDoP1rYt2YJ7V7aVonys5czN24kDMCB2qvNLtAOPrUjyBuQOoqrc3CoMsDgdeKlyUVcUE5SSRla1fSJAqRPmSQkBR9a0fg1aTXnxy8OW8xOLNpJt2O+zr+dZFkEvvEfnrwtvMBGD0GBzXb/APSBJ8aLjUyuFg02QqM9O3FfB5rio1cRo9D9XyDBOjhU2tT2RZJ1BWQ85OfzqZDlQadLFFCMsmcntUX2mIHaEb2ryXJHuezJB15q3H9wfSqqEbhmphIAAMdvSspSRol2JaKQHccAmnhTjgD8RTjURHspXFf7pplT7W/55UmwdPL/WnzIcoSkQ0AEnAp77RwTn6UzDbt4PFL2sUT7KY/5/alpvmbcBiPzoM0YGCRSdRPYFBokwnqaMJ6movtCeo/Ok+0RqTufpUe1Zfs0TeZ7UeZ7VAbhR0fP0o88f3qcqsVuyuSJZhJLMxp00u3YDyFySPWqcMxIwetOdz3UdKx9qmy1GyOP+IGiXXjLxLZ6c4b7JE/mO3qwzVH9pBLGP4T2mlRKAt1qcduiJx8vU/opruDCcF342kmvL/j9qD6l4i07whaqSLKI3UqgcGST5EH5c/jXPNNyNIX2OM8Wynwp8An0lbVYpvEmqfZrVl+8IYsMT9MkflXI6bNbW+sWNoWDh5wmc9Rtra/ao1r7N490P4YaZNtj8M6JGs8inhp5gHc56ZyAPpXH+H/3+q2BLhTbyhgSevNe/k8W3Y8PO/dgema1B9lmMwXaBDkgdOleZm7N9qDSf3pmyT6Cu38Wai9t4cnv7mbC7dqEHB5FcHo+1IhM4696+3w0VFI/OsdXTg0jdsGhbAROh9K1INsiARqeB3rL0+IMMofTrWraKoXOT0r0PdPnzUYhAFJ6Cs/UbtY7V5QG4LCrd6RtJ547CsDxFdG3snUOOBkYbvWOJfLRZ25dT9piooXw4FlPnn7zEk4r0n9nqQP47vrhHUlNOwxJ7k815r4abFus0gwCM5Fel/s82qxeJtWkRnLPbLsOeB61+Z15N1nc/aMJT5KEUtj1m9JJGOmKrFCXyPWprqZZWyoI+tRLyQa5nJ2udMkrF2RVERIA6dcVX3v8A3j+dSNOrKV56UiRFWy2MVF7kkpkYcg05ZZCQN3SmfWisp1LbGiSJTcMq43nI96Z5sn98/nUDzqGIyaaZ1IOM9OKwdaXcrkiSSXvlttJP4VE94S3B4qJlzyKRYw3DCrVRovlsyeGUyAlu1SZPqaqqoQYFI7EnqaHUbNIwcy3k+pqGV3DkBjUJkkAz5rfnSGXPVjWXPIFh1EuZB6Giq8bMoyHqdM7eWzTc0U6N0SROwcYNW1iMyjAz64qnFtD5btWlZkZXBxkcinCWpzulKLsNjto9265baoGee9eSWMA8QfECfxTqwxbrePOzHp9mgHyj6HFepfEC8m0/wXeG0GJp0EUBA5DMccfhXkPxk12DwD8NNTtbaYJdXdjHY24z8y7vvkYroheexLXLufP/AIm8R3XjXx1qvjO9Ys+oX0kkZPZFOF/8drgfG/jPVbj40eGfhzoN+YljgGo3boOWzJsCGuviTJjwdu2ABM9nxjmrGrfCXRoPiT4d+JmlTRm4OnvaagpbOG3Bg3Tjpx9a+myWheVz5LP67hE9C+Ltxa2+ixaZEcC5k+Rc9hXL6ZEEhVc5G3pVz4sTzXXi63V5P3a2+6JR/DnrmoLBMqoB6gCvs6dNx6H55XqXvc2dOhdIwpx+FaNtGxTbketU7JSiru6jritG3Vhl8jHSuh7nnvcsXfRiBk4PArifiJrd/GLTTtG0K5u7m/uktreG2hLNK7kBVAHJJJxXYzytGvmK2Dzjjv2rhfif4v8AHfw28Of8LG+G97b22v8Ah/ULbUdGuJRuCTxyBlJXnIOOaivT9rRaOzA1lRrKR1fhPS7jzJPDl3C0d9ZhhdWrrh4iDggg9DmvQP2c7uN/FGqQHgxwDI9MGu2n0nwf+3P4Zf8Aa6/ZntbSL4jaXp8cvxd+HNoQswJX57y2jBG5GIzhckZHFeS/BPxbFoPxeuNK1NWhGpQlVDrtIf8AukHoeOlfm2OwtWhWlzI/VsnzSni6PLfVHuskiqSpPWnRLuIAYVUlkPmAO67sDOKntzhtwYYHevMcpt2Pf5bosxx+b91gPrUpYA4NVYQ6/wDLRfwNT1lOcouwuRD949DRvX1plFRy6XZsqSa1ZBIcuSPWkqY20hJJbqfSmmCZDuBH5VzOPKHs5dBViQqDk0vkp700LK44LjA7KKPLm/vv+VCmjWV2yNiFZsN+lRn7x+tWjZyE5JPX0pfskZHMZ/Ck6i7FwTgyoykKcikWIHjNWlslb+JvfNOWyRemaUmpbFyaI1gyAd3b0qZY5NgAXjHrUkFjPKdiqMAcZPNXLfTZmKxeSeRyxFDac0kTzKOjKcNu7ZOOMVpaZAJI9xONqn5gcj862fBfgDxB4xvl0/w7otzeSbtreVASM/UV69rn7MHhb4P/AA8ufiJ+0p8Q7LQdLtkjkeKyVpLraw6eXtLZ6Z4wPWvUwmAr4iokkeNmOeYLArWSufOmoeHvFvxY8WeH/APw50ye/e8uzJc3VvGfKtAoyGlY4CD618jfHLVtdl+M3i7wjrmpJNJ4W106ZPFC5ZGn/ixx0/KvaPiT/wAFdpvHWsax8J/2TvCSfDbwlo1ystjqQBl1fxNKp4hkTaNqHHKhjwetfK2n+IfiX4q8T+MPG/xe0pbLxBrviRNT1G0SAxhVZeeMAgkgdq+qlk8MLhnN7nytHiGeOxyitjWdrZcIQSrEHaeoFWdM1DU7X44aH4aBQaR4gsytrcOTsaVO+cdPpWLdXMht5VtG/eMcA9gD1r6I/aM0PRH/AOCcXwp+N+l6dFaajo/j99KF2gwZIXjZg+R1TIxk9yOK7snotK9jj4ixCbSPJ/E2qw6z401F4W3wwz+VC+eCq1c0xUMigjvWF4diW5iiu1jK+cAwD9Tmums7NkxIcYBr6WL5U0fEVpc5qWwXZ0FX4lYwjCjrVGxMAbLq5+latqFQEKpxVJNM5SjqMrRRDA/Otb9nbVfgtd/tJ+G/Bnx7ntl0PW0e2WPUEzbvctwiueNoY8A1g6nO7ny1wTn5eK86+LWg6T4o063g1ElFSUMsqHDqwORtwODU1aqpwudGGoPEVlBM+1/iR+zl4/8A+Ccuta7+0r+zf8GrjxXp2lRvPp8NrfNDqXhwEHKspy11bfNkg54QcVyX7Pnx5/ZL/wCCl1wlje6VZ/CD47WbtIsN22NK8QOufmjl5EcvZlbaR1Gat/sc/wDBVzWvhtYWnwr/AG3rbUtX0a1WOLSPiHo1v5tzZQfd8i9gOFuIsfxA5A7GvcPid/wT7+B3xq0+x/ak/Yw8aeH7HVfNMltfaDaQ3Gl37v8AMyTQ5L28nqhAZejBTXNJ4LHUnCSVztUcfk9bmV7HlvjD4c/GD4b+JLnwZ418DXsdxbxeak0NqzxzxdpY5FBV1PYg81l6Vq5nlNtPBNHIr4kjkTlPrivo39iEftbfBP403Xwj+Itx/wALG8IXyIxskuPOj0QkYae0lZQUgAHzRHj0r5m/4KxftofBTT/2mbDwB+yppFrqDaOpTx3eaeP3Sz5x5SEcMw7nivi80yiOFfNB7n3eR8R18VNU6qOjswsoWSOZGB7A81ZaORRnYT9BSfsk/C74wftEfD0fEy7sNM8L6GzmO21fxTqMdpDdEEgmLOSw464Fejy/s46RYuU1X9qz4Q26hipL+OouCP8AgPtXmxyjE1UpcrPoK2dYGlKzkrnnRhkHJHHrT4rd2OcgV6Fb/Bb4Ro+Zv26/gqVD4IHxBtDx68uKfc/CP4D2l79ju/28/g5E/wDCF8d2JyPX/W1s8hx0lojnfEuWp/Eefx2xI+Zh+ANOFsOCcH6LXoi/CT9nVTuuP+CgnweVe5XxtYP/ACnq1J8G/wBm+yjjuZ/+ChPwiKv0I8YWWB+U1OPDmOlvEiXFOXx2keYJbqAdwoaDBAWLdk16NJ8Lv2fIGMX/AA338GpCIw5I8b2mFB6Z/ee1SW3w9/ZnijH2/wDb9+C6yS5EaDxzaEjHqPMpS4Yxj+yZrivBX3POVtJGYqqZ29cGmBQh/e27j0969Nj+Hn7NNo7pdf8ABQT4OI6ffA8d2Rx9f3laFv8AC79mnVIPtOlft3/CK5VRyx8bWi4/DzM/pUvhnHLoaf62YDqeWQ2IJw0bDPT5TzV2DQQZWilUA4yM56cc9PcV6vq/7Jvja58AXfxB+HfjPw/4x0+1t2JTwrqq3LMxxxkcevevLfhx8f8Ax9+zr4rTW/iz8B7PxB4cuLEB4IZc3tqATmUoV+f/AHRXDiMmqYepFVXZM6aWe0cRRc6WrXQ6vwJ+z78SPHE6R+GfCc9wkgyJjGVQj/ePFen2/wCyVoHw9iGu/G3xtp+mQFR/oEZ33MnHQR9a9v8AgN+0f8C/2jfAJ8Q/s8/EXTruKyhIvNCtnWO+sCo+YSwH51A+h/GvJviD+zj4z+Ps0uq6bquq6ZqF+5RNUEIaWNO+1nPy8V9VgOH8Gqam3c+JzPifHVJOnFWSPHvj7/wVb+BX7Jtufhp8IfC0drqFxbYjuUi82/DAj5zEAQDzwC1eMfAP4p/8FOPj78Vdc1/4PfDiGXwxrcfl6p4h+LtmSbiHGQI1CvzndtCD09K911n4A/8ABMb/AIJ62l14+/aV+J3hi+8SxTebeS3FwNQ1SVxnascK5YdepwBmuD8f/wDBUL9qv9ouOX4f/sD/AAEHhPwjsMCfEPxtHsuwDxvtrcApEoBOOSQcV7bll2XQT0ufLvDZnmdTlhFu/U2NF+A/7Df/AAS00G/+OH7UvifSrrxRcsblrnUrRZb8TyZZo7O0HzRrngFgPwr86vi38ate/aE+M3i340ar4S/sW2129X+y9NdcNFbpwpIHcjk17J8R/wBn7wV8KNSvfjJ+078bb3x38RNRtdlxqutzieSQ9/LQthcn1FeB6vr0viC7l1Oe3MKySHy0znC9APyr57G51HFy9nA++yfhmtgY+1qPUg063e41a3j2jaX27Seo5r6b+M+v+A2/4I9HwnqOoLJc6ZcRzWNpEcutwblSG+m3Iz15r5r8PW32rxRaKr4UA8Z7jNe5/EXxt8FNM/4J16d4GvtL1BPF2pzbv3lmv2acLMGUK4YnIA5yor3MoTVJM8TiZqNdJHmXhq1kXTbSRxwsSgfTFdFbkbNvJPsKx/D9rdWenQ2d4yl0TBKHjFblqGSQLgnp2r2o2ufHubZd04Kp2uDyO4rUt9gGMdqpWZidRiMg471et5ABwg6Vo9yW7nOahKWcLH17c1xfxRIg0a3KyFC0vzMB0rsbiRTMHJxg/wBK4X4z6pY6foFvcXM2E8/axx909s+ma5sTFyp6HblslHGRb2K3gX4rWHhvbpnjTQhf2JXb9oUZcAjByCDkV6p8KX8R/DfWm+K/7Ffxy1DwtqjKBd2dpN5lvcqDkxz25O1kPdSOTyc9K+eJ76NV82CNZgVyAvIwPU8YqKzu9Q0ecav4b1WbTbo8l7aXHPuO/wCNfJ1pVaM3Zn6TClhcXh0pxufa/wAav+Cvf7eOp/CDUvgu3w28IeDtV1y1Wz1Lx34YWWK/eHADyJk7UkYZ6DAzXyX8KrHQ7bxLpulXME1xDJdifUXz+8uCDubdzks3rUur/Gfx34x0ePR/F01vdi3XEV2tuEc/UjrXN2Wt3/h7XNO1/SSFMF7Gzh/7u/B/DFcaxFTEVUp9CKeApYSk3Ba2KX7Z37U3jb9q/wDafl8Bapf33h7wR4XtDYeGfCWnXskcFpHGmGYhcbmJ5ye5rwtvAfw2f4f6tq01/qE32S8ZfP6sMN83BP1r2z9qjSoPBv7Ssmp6BoKy2eu4vre8RcgxyqCcHsM5Fed6JrixjxPp8ngOMw27eYsSqcTknGfxJr7zBUoOkrHwOOnUp4h3ZzNz4V+E2leFtI1SO0vVguZFSR0+8W7Aniuz+Dv7PXw2+Nv7QqfDDQvEdh4bi06y8/xDrOv3H2ax0+HGS7MeSfYDNczP40t5PAcGsX/gGDYbwpDZoXIhORz09q9O/Z30f4UfEP8AaD1T4RfFfXbbw5Y+LvD5XRNevIl8iS7C5WGWRxkKTx3xmvTjQV9EeU6vOfS/g/8A4Ii/sffFHwTefEz4OftyeCtZ8H6Qhl8Z6rZXM2/TIlPMhgOJAp7EA1Prf/BF79hnTPC1l+0Nq37b/gb/AIU5JIkdt4x0+9up2+0N/wAspYEBePHcsRiud/Zf/Yj0z4a/8J38MfiR8WfDeh+L9b064tvDV5YeNrVLPWrZwSI5CHHH1zjtmm+Df+Cfnhdv2QPFPwU1L9obw7Y/Eee7kli8AXXji1NpcIGykoAOwyEeuOnStPZ+97yJUktjpvGH/BEj9gX4T6Ro3jz40/tzeB9J8HeJZRH4F1WCaeVL3djDu6KRFg9mOBnrmvnz9v79hD4ZfsXfHjwv4Q1rxfba3F4kghvvDlxoREtvfW0gAWQnJxyD7+1esePv2G/hv43/AGUdL+Hvww+OPhO48XaZcKPGPhvXfHtslvpuAdxt0GVZWBGfu9Pxr5q+L1wfh34p8H/BaS/i8UXnh+F4V1axkae3slYttSNy3IHHHQZqakacVexUajTOKt/CHwbu/EuraMfCuqulnEz3DTBeSGK4Hzcj5Rz156VHptj8DrnwHN4it9Av5LWCY5SFWWQkY6YHK9eMV0tl4z1I/EG4tH+HdlBGlufKnMb/AL8dPmz14NUJvGPiO70e6u7P4V6Rb3cEreXZQ27JHKOOVA+pqEleyRo62mx61+wl/wAFFfHP/BMb4ueHfjD8LZ9QufBWqTCHxl4SuL2SSC/tWYAsqt9yRR90881+hf7VH/BRT4N/FP4nQW3wc8Hau/h280GK6tbq6twhgllAJi25xjtnNfk/Jq/ivxDB4Y8N2/w3sN+paisUiTRki3DMOh65/CvrX4panYr47uLHT3kSGw0+G0iUIoAKqAeAa+M4soSng1pZo+x4QrOeYa7WOufRdd8VfGCx+JvwP8V33g3x8JFNn4g0i4aJyP7sgU7XHAzuHc19T3/ib/grL8Y/DVp4K+Kv7bK+HdIRAl3e+F7KG3u7mMDBJlRQST3z+tfDvgr4m+JPh34gtvFPh8QvdWzZijnXcn4jPNXfGf7Rv7RXxDaWDWPiXLaWzAj7PYJ5Qwe2RXwlDM8ZRp8jlsfo+KyLLcXU9pyH0RJ8N/2AP2SNTbxj4t1qLxd4vdD5t5rD/aZ7p+pOwlgpJrhvi/8A8FEPid4xsf8AhHfhDpUHhfTCvlx3CxBpSnHQdF6V8/ro9ok322WEzTfxXFw5dyfqTmrrWrFNxZNu0nJJ/UgVzVcXiq71Z2UMvweG0hFFO9tr7X9Rk8QeJ9Zu9SvZMmSe7nLE854B6dT+dMkaKNfk3AKTkFulGoavpekWEl9qV6kSxozHLqOB1PWub8KeOLL4n+ItR0LwJDJqLaRCJL6S0IKxA9NxzXpZbg61SXNY48yx2Hox5eZX2Ow8MXZt/E1uyuCFG8/1r3X9qz4NeMvAHwD8G+IPEUTnS9c8Mx6jol1DkxrKQpKkEDDkMDgZHB5r530wXMU7PEAT5RIfPT2r76/a18baL8Rf+CFvwx8V6gJP7V0q50/TIUCDzEdXlgdRzg/6sHr6V+gZXFwhZn5VxFV566Plewt3ZEV2B45OK1bdXhkBVc1maJIZ7NJgvYA7utbdkpBy6Lx6GvXjFpnzKRdjIiOI1+mat2yhxlvSq8cG4bgasQt5Yx7VDbZJyN2w37m5571SXx14L8DeMdP1P4ifDeTxToDTiPV9Khh3TGFhhni5GXUcgVdvk+X5uuc1jajqOpaW/wDbGillv7b99alFBxIgyMg9T2q/daaZUbxkmip8Qv2KfEEt344+J37JHxM0rxh8OPCWlRatdXszmC8ghk8xjA0TLuLxiMlsgAKOpxivE9G8X6R4igFzp90PmCnY+VYg5wRkcjiv0Z+A3wN0f9tT9jHWv2xf2aPEz2Xxm0ZLiw+J3w/0m58i11JoBseG4teF2SQfOrnqdy9dwX5y/aT+D/8AwTp8RT2Wh61/wmHwW1W7tYRDrN3p8smjS3XIlhaVMujKxxnAGPSvOr5dTqSue/h81rUEmmeBXN9FbRKxJcEcMCPm/OlmnS5heAEqcEDPv1rf8af8E/f2tvhjop8Y/CrXdP8Ait4WKGWLVPCGoJfxshyRhIiXHX0rzBviT4g8PavFoHxF8HzaPcGTZK00TRrEfcMM15tbKnD3oHvYLP6OIlySPRvilo+p/GD4H6Fqeg6kq6n4IuktL5jw89q5Yjtzgn3rzux+G/xQm1e7vLJlWK4tlSHOMRucfMeea9D+GF7p9x4kuPBV/fRf2V4msZLd7hcBfOZR5bZxxg/SvNLnSte8J65d+G9RvrlJ7GVo5UFw2ODgEH6fzr2ssnOKUZM8HOqN694rcrXnw0+LlloE2jX0du98bjzFeJQU2HtVfxB4K+IGvW+nW95ZQ3dlBMhvYJYBwo67T1B6Gug0LxZrmk3Pi7VNP1to7vT/AId61qmmLdBZUS5t7WWVH2MGViCmcMCDjBBFfNB/4KF/tcmMRf8ACzbIKOgHhLSh/wC2tfTWw0IqU23ftb/NHyMniXNxpW073/yPaLz4KX8viFrq90q3uLQwlbN2jzJF6YJ5UdKqaP8AAjV4Fv5Ly3lk1CcYt9R8lTKAOmSe3Tv2ryC6/wCCgn7WN7aCxufiLp7RAY2/8IfpIOPqLXNN/wCHgP7WW8SD4lWYZehXwnpY/lbUlPAdeb7l/mL/AIUf7v3v/I9Yt/2d/EFx4Pm0i60iOXV5bku11FAoyuP4j1PGBW7F8NviNpvhzTrLwvHDaiJ0FwQu9nPGSD1H/wBavCLP9vz9rDT2DWfxLtYyvTHhbTP/AJGqWT/goT+11I25vilb/dwQvhfTAOuegtuvvQ55fLfm+5f5mfLmi2cfvf8AkfR9n8M/jNd+LnvrWaaayEWzyTHnY397P5Uml/A/45fY9Rgv2vQ8r5tZ44dpQE9OfpXm37P/AO1r+0V8ZJ/FWkfED4ix3Vjpfhc6iEj0m0tSJFvrSLdvt4UdjtmYYJIOenAx6e/iHXNSijvJvEOoDjcm28IyOwPvUVqcPZKdO9n3OilVqObhU3XY3fhJ8Evila/FfwjP4lumWysb5pr13dSWK85I9K7/AFjWpNZ1+/1hsn7TeSMpA427sCuY/Z+huT4m8S+NtQ1S6dNM0ImAPMdqyudvOenJ7ZrSOr2enadLeXEoRIkzMZnCgY7Y6/kK+H4glOtTUGfonCVKNOo6hoQux5Z1I9Q2asWMkM8hjEoRsch+349P1rzbRviZ8XfiRfvpPwS+DWoa9ISQzWdqZj1xgKmTnPHTFe7fBH/gjD/wVD/afX+1fHOmT/C3w1BG09zdeKHNnGiDrk4Y9x1xXzuHyCpX95rQ+mxfFeCwcnSbuzgPEfj/AMIeELH7Xr+rW8RPSETKzn8ATXC6n8cPGni+xmh+D/gPUNWljlEZlijb90xOASgBbH4V9J6/+w7/AMEfP2ONPubj9sz9t1PiB4khG1PCnwjvjqUtw4P3PPyY054O9lrvvhP8XZf2j/hxqvwx/wCCb37MnhH4XteQ+XpHinxnqijXtVGf9XbSiPZHcv2jDMMcbq+gwvDWGpe9M+axvGOJqxccOrGP46/4IyeBvB37Pfhn4j/tQ/t26boGv65DDq15oN0oMsVvcKrC3hgVvNeUbuQVABVuuOfOPBXxm0HwJ8P/ABL8Cf8Agn18HNR0zwDGrw+O/it4n0lZNR1B148vcSUtUz0wxau8/ak/ZO/bs8Maton7aH7aegeFvDw+H+j6Xp8FpaRHzPE0sLMUV+olnJf5to571jftQ/F345al8ObHSdW8IeHfhf4N8Sj+0IPh94NQRteuQD9qv5Mq0sh4O3AA5ruqrB4OHso2u9jw8HHHY/EKtUk97vseOw6lZ2Fwsn2ghNqAFzjdk+nrivQvjb8dPHWsfspad+zXp955GnaX4k/tOzZ3OWLOz9AOBudq+cfH/jGXVtSg0mwkMaW9wryknlwCOMg9K9a0nWdO8cNprxje0KorxDuFOa0wcJRgmZ5vVjVq6PY9asLeOGFI4lwAOa1rVDz9RWdZKxGMdvStS1jIUsBnNeldHj3RbWRlGBU8QDJlqhhgaUg7ePerUNtLtycVgQclqMaENz61i3kWGMgbGMnj1roNUt3wQrdaxr6D91vB65yKLWBKLZy2ieKvij8CfH0/xI+BHxL1bw1dajbtBrcOl3JhTUYW+8koHB5+bdyd2Txk03wN8WvjPaeG9U8JeNPBGg/F/wAA6pcGe/8ADmuu8eoWRPLGCVdxVs+35Uvie1kkV1IOCO9eb3+peI/Besf2v4ZvZYmDfNGRweeeQayquaSsenhJUpRcZGh400T4F/A7xJBrH7Ofxf8AjB8BdauMG3t/EGmNPpfmf3RPaSbyvb5o698+G/xj/bj8c+EI2Hjn9mn486f5G2Aa3LGbqVAuPn82GCXpzlmJ968j8L/tlraww6B8VvDMOo2a/wCsu2iKMx9gC35ZrP8AHPhv9kX4luPGnhC0gtNT3ZntIp3hBOeg5yB2xmuV4iUL8x3Ucog588JGJ44u/FGveO9Z8Q+OfC2l6Hfyai0smleHpQ1rE+//AJZNgYHTpUnxF8HeJvifZj4j/D3QrnVp7Cz2+ILGwXdKjAACQKOWBABJ9c1lapDeaLD9k0zTprwx8BYDuH+NZ/hrx78dfhzrbeJ/h1p+o6RdMjIJ7aUfMpAyCOhBx07VyQqyhW5kevicHKrRiovVHmuu+Lc+Lbnw/PazabDq/h/WNJbUdTheKC3a7s5YY2kIVmCq7gsQCcA4B6V5VP8AsO+LY/NNp8bvhvdCIZBg8RS/vP8Ad3QDNfYl5+27+1BeRC38WeD9N1VACCNS8OWJLZ9SIua5y4+Ppuyf7Y/ZB8J3TM253SyiQk+vHSvpMPm2C5FGtFu3ZnzFbIsf7Rypu1z5r07/AIJ+/EHV7WO6034y/DqYNHumRdenDQezA2/J/wB3dVm4/wCCcnxWtrhYZPix8O9rIWMo8RS4HsQYN2fwr6Jl+MPgggJcfsN6BKc53R6rMrDjnOHwc/SnTfET4Tugaf8AYE8PSFSMI+uzhQO4+/XY8zyXl0g/vORZHnV3ea+4+cF/4J3fFNbqS1uviv8ADqDZHvV5vEzAOMZ4xCTn6gVUt/2DPHdza+dF8Yfh95qyMk1qdbuA8RH94/Z9v5Ma+jj8V/hJES0P7APh4YXq+r3GGb+82Jev+cVcT4weD7C1Btf2F/Dazg5Dvqc7rnjqN3J96wnmmVJaQf3lxyTNuslv2PKf2VvhH4b+AupeM9c+JXxi8HzDV/A1xpek2ulai87tePd2sqFw0agIFhkO5Sx3BQFIJI2NH8ard3baBZaXNcShN8TxKWWQD3Ar0iz/AGjdUhTdpn7JfhewkDKUktNLik249N3StiX9uL9rS809NH0vwjZWFgsZQW1jpNnGSOn3tuelc2IzjDTgo09EbYTh/F+2dSox3gNrvwz8IblNWtJLfUfEmo/8ee394lumSMg9OcflUlzrfi3wxPZ+KfAem6bf6jp8yzW9prNsJYZ2H98HqDXM3Hiz4ta5rh1nWvBN3KXOXlVwGX6L0H51u6Nf+OrEf8Vh8MdZsojhRK9tuXPPXGcV8nj8ROrVUkro+7yrCRw1Hkbsz7D8LftEf8FUPEvw0s9R+Ffjj9k34FaabcRyXWmXNpY3ZjAwZNrLJIpx3wD718/ePvFvw48Z+I7m4/4KAf8ABXzxJ8U9MUyC88P+CLrUdTLIfmWBTqEVtb9Rjg+nWvQf2ZP2c/2JfFurX3ib9o7xZoWnJp9mPs76hdbHuuvyELgjpyQQcEdcmuzu/wBqD/gkf8EldvA/gDw/e3NruER0fR/NdiOOJJAAueex+laRzWVOlaMTgqcP06uIdWbRx3wdvv8Agn3owm1r9gz/AIJi/E74qa+r+XBffGNbW10y1YfdcR2zyCZc843KT3xV/wCLH7Pn/BRH4tfETQ/j/wDEjxr8J/gvpmgzR3elWPhi1eKPS2jIMckVv5QLOMfedvwrnfHH/BZLxPd6dFovwH+Cdhotvb/LbXN7gDjgMIolToPWvnb4h/Hf46/HjUjqXxc8e3t2C2V0+2kaODHow3ZalHHZniXaEbI3WAyfBwU6sk2fUPxi/bP8OnXYdY+Kfx98WfGvxrZ3BmsLnxIkQ0vQ5mJDtaWit5cbbRweSDivl74s/EXx58V9auNa1fU5Z7i4YrseYskanoFHGAPT6+tZOkeHGgnVrVy2TuZmj2Fj6k5J/Wux0fwmjkERDkDgiuzC5a5VPa13do83MM7pwh7PDRSizivDvwmuL2VfPlZirY3ZGW+te4/CLwDaeH0jPl5A5yfw4qv4e8NLAyvs6e1d94fsiI12A464969lcsFZHyk6jqSbZt2MCu+Se1aCRZ4A/WqllG6NlVOK07eLePlUnipMhbdCAApOauQxlY/unrUcFseHYEEHvVkI+3j1prcDnNStsoUAzjvWLf6Z5qt85BzxgV0l5/FWVd9W+lOWwHHa9p4kDBkO09TXn3inSCCSYieDXqGtf6l/pXD+J/utVRSsy17ux5hrvh+Sbeu1ipPC45H0Nclqfh02jZtICm05LAda9S1fv9a5fWf4/pXLKjCW50QxleGiZyD6t4ssQH0nV7m1kI5aNs5p1r8RPi5ZqBB45ucju9upq/c/dqpU/V6Z0RzDEwejJ4fjV8bLZcLr2my/9d9ERv8A2anw/Hj4vxACaPQHHcDw7GP/AGas7+D8aio+rUzf+08V3NaH48fF+IATR6A47geHYx/7NTh8fviQ3H9iaCR6f2UvP6Vj1XoWFpT3ClmeKe7Nz/hoT4wMMCx8On1/4kyc/pVtPj38Qoh+78M+HwB66Wp/rXMUi9/rR9RonR/aWJ7nUS/tG/FZcJpljoduCcc6Gj/1FE3x8/aFk+W38VaLED12+HIjj9a5dPvD/eqzVSwVGGxlLM8VHZmlP8VPjleN5c/xOuRGeqJZxg/nUT+N/iZMSLjxjfyg9pbxz+NVbX/XH6VaT7wohhKMnZoj+08Vfcy7rSV1OZJL2a4kdDkPJJuycEd6ltPDrxFDFpdqcdcE8+/StIffFammfc/KnPB0ILREzzDFcr94raTobh8eVgem2up0nw60pDyKP++Kg0z/AFx+ldXpP3F+lXGMI7I86rWqSerHaH4djO3g/wDfNdjo/h9MqAuPXis/Q/4fpXW6T1H+7VGKk7F3SdIiWMRtjtztrpNMtI4UDbOO1Z1h/DW3b/6lfrQInhgDABBx7CrllA0YKhTUGn9F+laEf3TQAoXHA9anWJlXBBHNRRdfxqw/T8aAP//Z" vertex="1" parent="1">
          <mxGeometry x="70" y="200" width="210" height="140" as="geometry" />
        </mxCell>
        <mxCell id="4KgPTPjGrruZlJ7_TV73-2" value="" style="shape=image;verticalLabelPosition=bottom;verticalAlign=top;imageAspect=0;aspect=fixed;image=data:image/jpeg,/9j/4AAQSkZJRgABAQAAAQABAAD/2wBDAAIBAQEBAQIBAQECAgICAgQDAgICAgUEBAMEBgUGBgYFBgYGBwkIBgcJBwYGCAsICQoKCgoKBggLDAsKDAkKCgr/2wBDAQICAgICAgUDAwUKBwYHCgoKCgoKCgoKCgoKCgoKCgoKCgoKCgoKCgoKCgoKCgoKCgoKCgoKCgoKCgoKCgoKCgr/wAARCAB3AI0DASIAAhEBAxEB/8QAHwAAAQUBAQEBAQEAAAAAAAAAAAECAwQFBgcICQoL/8QAtRAAAgEDAwIEAwUFBAQAAAF9AQIDAAQRBRIhMUEGE1FhByJxFDKBkaEII0KxwRVS0fAkM2JyggkKFhcYGRolJicoKSo0NTY3ODk6Q0RFRkdISUpTVFVWV1hZWmNkZWZnaGlqc3R1dnd4eXqDhIWGh4iJipKTlJWWl5iZmqKjpKWmp6ipqrKztLW2t7i5usLDxMXGx8jJytLT1NXW19jZ2uHi4+Tl5ufo6erx8vP09fb3+Pn6/8QAHwEAAwEBAQEBAQEBAQAAAAAAAAECAwQFBgcICQoL/8QAtREAAgECBAQDBAcFBAQAAQJ3AAECAxEEBSExBhJBUQdhcRMiMoEIFEKRobHBCSMzUvAVYnLRChYkNOEl8RcYGRomJygpKjU2Nzg5OkNERUZHSElKU1RVVldYWVpjZGVmZ2hpanN0dXZ3eHl6goOEhYaHiImKkpOUlZaXmJmaoqOkpaanqKmqsrO0tba3uLm6wsPExcbHyMnK0tPU1dbX2Nna4uPk5ebn6Onq8vP09fb3+Pn6/9oADAMBAAIRAxEAPwD4g+IEGtN4vtfCHhPww8+lyRD7Vq02VCsDz1/lXTaLpEllaG1Ekm1RwWbIIx0FaTRtyFXIPrTgdibW447ivOSd9S3OTjYitLSC3JkRRux1PP8AOpvIZ2Hc9sUwpvYY9euKtQxbcHPStYpIhtsEt22/d5xU0Ni7oSe4p8L4bLKenJNaNrarMvBwccD3rWHI92BUtdNcEZRueOlaVrpyh16ZyPl7/lUUMpmvHsLSGS4mB+eKBCWUe+Oa7Xwr8BPjx40ZV8L/AAsvBG44mvFMYYe24ZrOtjMNSVnII05SObZ4Y8RhcZOM4qWJ2km2rFK2B98JxivavCP/AATn/aS8QFbjxBcWGk2zINxLb3HHYjjmvRND/wCCanhfS7YSeLPiB58q48xRdxQgk+/Jrzq2dYalHSV35GyoyZ8ovOm9YJJlyxx97kV5B+3qum6j+zSyyyRM1jrMMm3APB6k+3rX6R2P7FH7Onhtmn1mbTrhUUl3ufEKYwBn+9W7o37HP7NvjHRZ7AfB3Q9W0c/PcTzkywH33Hg9PWvJfEdOMk7M2WHla5/Pj4c8YaLaX9hqWl3EllsdI1lhYjyzu+8MenX8K/QnUP25/wDgn5+1t4P0j4d/8FEvgKLLxBoWkpbaN8RvAd8iXG2NNolnDHDnhf1r9CdQ/wCCcP8AwTp0rwBdfEH47/AfwX4f8I2lu5F60bRPLgYGzkZPPaviP4qfs+f8ELP2j76/8CfCHxOvhDXI5Xj068vZHhguJMYGC5A25H0rvocSRq1UlexjPDTseD+J/wBiH4aeKbgeMf2bfHfiaTQL28RNI1O/uEJTkbS23nPTpz1rdt/2OvDsXimGy+Pet3/iq7Wy8iK/1bXZUSIY7DsvtXz7+0B8M/2nf2Ntak+H/ifVdcs/CkY26DqWm3bSWc8WciRWHAJ+tcJefETxJ4hkS+u/GOrXZABD3GoOwH1A7V9ph8ywjw6b1Z5NTDVvaXR9xaD/AMFKPh7+xHoOqfAv9nb9m/RNA8RGM2uoeIvDVpvutTjboHuznAwcErjrXzL8ZPjF8X/jl4iTxR4i0m6t5FVgq8yk7jkks3JrytPF+p2c7zx3ZWUHKuwyWP1ov/iT4guHVp/EMwcL8wQ4FctSaqO6OunC8bSPuOORcqSf4hRPh3+Q547GoF5UYPep7ZS7ED0rzIxL5h9uigYdauQWm9xx16DNFvajIbPb0q3bQsZQFXJPCgCgodHaKsQkJAVDlmxkDHXNdT8J/gz4o+OviWDw/wCG4J7fTpHxcXoBQy+uzPUY7iq/w78AXfxH8Ry6BcXUcWjabCLzxHeFgBbwKMlSTxlu31r6S+BH/BQz9jj4I+HW0TTPhJ4qv723mEPnLAkSuoPBQlj1x1HPtXk5piquHpfuldm9KmpP3mZ3xi1fVP2KtF074efsu/syXfxF8c3KD7beHSpLmG2yD3RTuPQ9a5nRPB//AAXv/aFSPUhocHgmwPCWphjs3QHpgMCQPckV7N4W/wCC4fw31b4hRfDD4L/sy6/eXkuGvbi5vkbZ6b2jBxz6kcVta5/wVx+M8V3Jb2XwM0y1ETEK99dNJgjpkg18xTpZjiZXnBs7/wBzDqjw3wp/wS7/AOCmfxG1q7g+K/7TF3I9tIDLCdeyq9yhCnA4r0TS/wDgj58YXjSx8W/E57uE583ZqLuTg4I45Heqdn/wUh+P2m6zqeoeEvD+hWj6pOZJ98bSgOeP4ieK0F/bb/aAv7EXfin45xWUknzeRpGmxjyyeo/OvQp5djOlMieKoxR02kf8EhpYIv7NvfGMcdqRtmADySFD97DbvlOM89q+lX+GPh34f6F4P+AvhjSlsrG7bFwGkw72sI3O5zySen418YXH7Svj/wARr5d98fPEs4ByyxXAjDf98jir/wCzJ8RNb1r9u3wbYat4t1K6i1HQtVtl+33DzAO0JK9eF5rHG5Vio4eVVx0RnRxcJSsj5j/4K8ftQ/G39pX4neIvh14J0a4Pw6+Hmpiw1NrR/kTJAXcBxg4618R/EjwhYeLbKwtdF0qEfYwrxmP5WPHcgDnNegftQ+OPiB8NP2o/ijoPhnx3d2tlqniC5tdT04Sbo75QxX5l7HBIFef+HteW20qW41PMW3OSe5Hpn2r1MiwFKVBVZrQK9Z7I99/4Je67rnxM/aD0r9ib41zjxT4M8Y6fdpZaRrD+c1lcRQlwUc8gHb0z3FYv7QP/AATR8BfCf4y65oPhTU5/7JkuhJZQtgCNf7oyMjHPU9q+gf8Agil+zTc6d4y1X/gp38RbI2ujeG7e40z4f6ZKP+P+8liMbXIyfuIrnkZBOf7td1+0IsfiLWf7fmhyzzM0r7fXkf1rGWPp0c1VKD0NFRcqPNY+LtK/Y58DJsmvbVpWBAG5q6Ox/Ze+HUCsh8Lo3TBKZr2j+z4IRiOIEHkcUeVF/wAtIyp9AtfWudopI8f3kzzZLSVwDgAVoWNlIrE+XnIqeKEeX5axjp1q7bQhBhyBxyT2FZprYvlRBBbsp3GM++RUspexjNwlvvYDMcZ/jbqFHqTV7S7TUtTvItO0nQ7y8lm5C2VoZWC564UGur+HHhJNN+Jsl3468OXNlYeEIhqWpW97CYi8gP7mIowz1yT61zVq1Gk+WT1LinLY0vEKeFPgv8MbP4Z+K797WbWLyLU/G1xa8yrvIaO1PcBQQSvGTivHPFniPTP2l/jVb/Cv9n1Bho1W4u4htS0twMGRnzxxnt171W+K8fxi/ag+KV18LvhTp4uNQvJmudTv5wTBax54ZiORtHb0FfRHwB/Z68D/ALEvw4v/AA7pGtQa14m1mTfrms7Njlx/yyQZ+4K2weGp1IuUzixVTlmrM6DwL8O/h5+zh4Hj8G+AdJhWeVQdR1Odd09w+Bu+Y8rz0rnPEuvw3TOGIJyfmA6VD4k8RX90ss00md6/Lkgc1y0t3OW82UgZ9a9OnSpL4Uc0qk273J7icncIXPOSeMd6js7dpn27w248nGQKrG5kDBcZzwGzxmrei6dq016CGHlqwMg9B3/SuqnTUehlKvN7nS+H7KG3lWWeJdoGDgYrf+CXitdD/as+G2vWSAOniaOzLFv4ZRsI/lVG306SS3YIo5XGRWZo0c3h34w/Du6yI5U8faa0Zzgt+9XOPwFeXmzUcFNNaWOjCTk66sfE/wDwUk8JweAv21PiJrusX7sJvFEnkW+CMbiGzjvknA9ap/sffsifFT9uX9oPRfg74Y8K6jpnhpZ0v/FfiG8sZIorSwRsy4ZlxkjcAa+k/wBtaf4f/Cr/AILmaT4p+I/h+LXNAi8TW011pNxamYHzlCqwiAJkIJ3AY5K195fG79s7SNa0e68N/CDwlc6cJgIRdNoX2GLyt4O1iQGZR7DFfnOK4gWWZfGCV+Y+qw+FdeTb7mR8ZvGngbwf4S0r4G/CvThp/g/wnp6WGk2MA4lKjDTNjqz4644zXiPi74heHtX+GGs+L/iAlrpCWlxHb2kpOFHO1QSeNzdvU0vxG17w/f6jZ/2B4mW8ZbU/b2R/lEv8QXHb0rwX9upbrxf+ybqng7w9HKLiXVo7j92Dlo4wWx69ia+ZyyrVxeaKq9meriKcaOH5UdhNMghV1YEYGCOMg8hqh89PUfnXIfA7xBqevfBPw1q2ppI011o6Z3g5G1duPzFdSm6FdrIfyr9nw7j7JOR8jUg/aNI5qCFi3yqceuKurGiLwxBA6helMjkMS7EUdOc1IgaZSXGMjHBqUrDPUf2VP2n/AA3+yb4nv/Her+FrjUEmTctxbwgtGq89GHTjtXL+I/iPb/EvxiPE3xt+I8PhWTx7qU+rancaofLMNkDmBMHr8oyMcZNYWkfDrxj8Yb+X4f8Ag/T5W2W3narcxRkrbRf7RH3ePXFfqD4a+Ev7Pfjj4LeG9P8AiL8B/Cvib7DocNvb3V9o0TyrsjVfvkE+/Br4/PMRQwmMVRy+R6WGoudBpLU+JPhr8XP2GPhPpy+HfBXx/wDD1pG5826nS8zLckHJZm6+uB0rifEX7Wn7K9xqM7af8R49SZXZv9GgeQNxyx45Gfwr7fX9iT9iQ6qb7/hjPwKzCQsvm6R5qrnno2e3pXY+HvgF+zn4ZkLeGv2UfhrYrFgRvH4Rti+SeSGKZwMA96xo8a0L8sdkcc8oqSd2j8v739qj4R6uxg8OaFrupkkgR6docuCfqVA/KobX4nfEHWrg2ngn9kP4ray0vyp9g8LTOpJ9MKa/Ynwvqen+ELdoPCvgzQdMiIIWO00WJFz+CjFaN98Q/FUqFG1YhmOVMKKNmeOBt4/OtXxvZe7ElZTOx+Qui/DX9vrxBMo8Kf8ABPLxrslG6OTWbOe1WM9iwdBj8K9a+G37J/8AwVYe3+0XP7Ing+3hlQ7X1DxKqMhPQlXfqPpX6Jnxd4slD/a/EdxJlcf64jj35waZNreoNHvlv3jRRyzucVzT44rp/DoaRyWL3PjLR/2D/wBvnxJCbbxDP4A8NmUEOF1Lz5YyRjIRc5x+Rrr7D9g/4W/s/atp3xQ+I/xX1Hx7420yLz9N0iPaljb3BGd4QDdldpwfevedV8Ra9qLSWPgK2N3dk4a7UZijHXlhkCsW/n+Hnwoh/tnxH4v03UvE162TbC6SRkIxxt6jqK8HMOLsbj6bhBaM78LllKlWR8l+Mf2Mopv2kJ/23P2inSbV7i1UeGNFUhmtHVcLcuCchh1XI9K4DxP4v8Qz3s+l6vrVxeqSwEsjcDJz2+v6V7j+094tTXo3lvNUmaaRSWDEhYx2UelfNOo3ttFuxKTwcknmvAhPEYyMVPaJ7dKKot+ZVuvs1hvjhgVVcnLbD3964H4o+MfCdlHaaN4ph1CUXbyRRC1gZkE7LtUnA+6Ofzrp9Z1WN0eeSYRRQEB5HYAZ7cniuU+LGn674Ei8Jal4pt7ezj8V6ylnYR3dwqy+Ww4mAPRckfN0r6zJqMYVE+xyYmTktSD4L6L/AMIr4MXw+LuV4be4lW3ErY2ozZAH54rrHlcHM2MnsO1cf4Zs9Z8I31x4e1q9Lz2dyyt5vLdcgZHBFdEt+LhmcquOxD9a/Qqbc6asfNSbjVYyOEL1J/GnqHUr5J+YHjPAJpxIK/MenvTrRVaeNmk+UyAZU5xzXUpqLMrNn1V/wTo8WfBXQbzXfhNqmpQWPiXU7Yym+1N9sdwrA/ukY9CD2NfUfwfngh8Btp63cE39nzNAJYZg8ZGcDBHBzX5TfEfx74Z8LaUNH+Ovwn1XCaxCBojSSWY1KzzlpBeJhoh9DyK+hv8AgmB+3N8LvFHj7xp+zV8PPDYj0mE/avDenQao14EjA5RZ5MmTaeeu44xX5bxblVaTliqdS6W6ufR5ZVio8rWp94i5i80BUUnuF5q0ksK4RFGQct6gV8z+K/8Agq7/AME9fhnq114X+Jvxm1zTNTsZjFfaePDs5MUqnlfu9RXKXH/Bdj/gmhLeweHvCHi/xXql7dSeUkX9lpbIzk4Xc8mNoyRn0r4bB4HMqi54UpNeh6z5Hpc+xWuUA3MTj1J4p2/cdqryBnk18r/GD/grn+zd8BPAcHjXX/Baa7BcOgt7DQfGdpNcsD0LRoCRjv1xXz14s/4OavhXbMy/D39iGe5dcMDrnifdu/4AkRGR9fwr06OW5pW2ptepj+75rJ6n6WCWBzneg+Xj5h830ryv9pv9oq0+FOjtaeHrA32pyusNvbCQIrSNwMk9s8E14z+xb+2j+1l+1t4J1745fEj4Qab4D8IRxunhjTdJ0t/t2py8ltjTFndcY5CgE9K8x8R/s+/8FI/2jvEh1mey0z4aaDLcvI2v+KbuMM8O4/chVml3Y7bRnPWsaVDkx/ssXJKK31JqRm1oj6k1/wCIOs/DHw9HaftVeNdFtLGbTF1CPR/BEojF3kDMUtwgyGP3elfPHxC+NGt/GD9qC017SfAMXhrw/wCHvDMcGl6VazB8mVw6SSuMebIyDnrjvW9oX/BOb4KXPiO38cftD/E/X/inrmn2ixLHY79L0qAL0Vh9+QDuAy571Z+Ner6bYyW3hzw7o2mWMEDCGKHT4ANiJgKM8MxAB5JPQ17uOzvI6GG+r4OF33OTC4avKvzSZ80/8FWvjn4p8AfDjSIPA2tNbarf3Qlby15VARnjqAf1rjfhP47f4m/DHRfE91IiXs+ngXgwMbwcFiT0rW/a9gtPih+0FpPw7v7dGsofCxQySHiJpDndjOd3b2rz/wCENqfBHwpu/Deq+I00/R9Hmmk1W/lwAkYJ/dhvUjoASa9PKMEsRl8ZJbs0xFdU6mvQ7rUvE/grQ9KvPiT4+nEXhLw/iWbLfNqNyv3EB6FSwA+hr4m+N/x7+NX7Xfxb/wCFi3Vm8ttaT+Vo2npIY47GIcJtHrgDmuj+IPj74l/t4fEe1+GPwssZIfCejTKsQVXUOoAzIwx8zEnoa774b/CGXwXKfDjRRmW2+SR2UDOOv419fluUQo6nkV8cpK1jc+CFr4uttMjufGusyXeoTEtceZk7cjAAPfHrXrllHFb2iLIFJJOd3BB9OfwrG0fS9M8Paa+rarIkUMMe5nJ6Ad//ANVfX/7Kv/BKnwx8Z/hhH8W/2r/HkvgmPW5vM8JaHLeJbzfZQAWml3ODufdGdv8ACMcDdk/Q0YU4Hm1G2fLTMWGAwxjqK1PBng/WviDrKeF/C9q1xPKCx8rnH5dK0Phf8LfEnxW8SJoWhWe6JJB9qmYAIiZ5yT04r034k/FDwh+z/wCG5fhd8FRFLqKJjV9bCKWBPVUcZ6e1c9TZoaumes/CX4haP4v8Cx+E9bTQvEP9lRNb3um6zaRTuGUYIB2kggdqztK+Bn7J2iePrX4n/Df4BDwl4ysrvfBq2gak8MLtjJ3QKoVhxX5cfHGfxb8N/wBoCbUvh1retReIfFbRNoy6VKyRNMxCuXIOCMHPTrX2V+0T8b9a/Yu/ZBsG8X+LjqPj/WtPWIXKybnR2T5nA7gZ61+P57kmZ/XXyVHyzex9VgXQVJNrU9z+OXw8/wCCQHxd8a3HjH9tTw34Uh8WTRhL+eLxrcWrSkcB3hhcAN69+K84uvhV/wAG2vh4OI/BGkSSsuWePXtZnLDr8pWT+VfkN4kmk8YSXHifVZbm71SaQTtPNM28uWznJPXHp0NeK3/gbxRpmz7ZpyLvOFAuo2/kxxX2WVcH4tYSN680n0R5+MzCNGrZJfM/dvSPiX/wQR+Geq7fAvwTsdSuBnZaz6Re3yyei7bt2XJ6c+vNd5ff8Fbv2Tv2cvCs/jXwV+yVdafpUUXlx3Gl+G9NtEJIwEwF6n2r+eEeGNfYFl0uQgDJIwQBXf8A7PusX3gHWNd/tXRC8es6AdPHmxghc3dtNu56cQnnB/WvWjwdhnJKdSfq2cDzWrFc0beiP258Gf8ABeX9lX48+Mbbw14lt/EHgSWeVU03UdWhR7YuSAFPkgeWCSPmPAr3TW9e1G2sJfFjyz6tZfY/tUF7Zv5guYcZygY4PrivwFvPE+i6nYjSNZuY1gKldqKDg+obrX1B/wAEzv8Agpr8U/2ePFlv8GvHyX/irwRe3ax2V35Bln0t2YAMp5O32NfH8RcCUI03Uws7tee57WXZsq0bTR9LfEX/AIK5+NvGPjxvgn+zl4Ag0HVlYxXGv+N5lkeJgcfu7fgZz61xf7Fnxa+M/wAT38da78aPGcur6ppniSO1NzLgoGBbLIAeF+nGDXuX7Wf7D3wX/a0mj8V6bdXfg3xUY/3Ov6Nb7vtUZHIeMDJJzXD/AAs/Zz+Dv7G/hw+Ctf8AizHZQ3dyL3UtV1y5WKS4kwAT5fVR9elePQw+VLAOlRpWqPR6dvM3U6yxF29DjP2gdF/4Sj9qmTRYYJ3vx4WW7hu7ZTsiSMkyEkdMLXy/+0Lp3xP8ffFm3+AXhfUpJNGmVJtSa3bHmSkjcWwBk47Yrvv2kv2nfCcn7a2l/Ev4U67JqOg6Rapa301o+FvrfGJE+hIOfY169+y3D4Z/aF8Wa98dfDejKmn32oPDp0gQAFFXG3I9+9foHD+FlTwMedW8jw8wqfvjf/ZH+AHh/wDZ08H2jaVoYl1GV9iwsoJkfK/Me+M965ybw7JH4+1q61NUhkTUJJLiPI2puB4HtX1p4G+GU2qa/YalqMSAWlwPLj3blUHHBI6fXtXM+AP2LvEH7VP7V3irStSuV0f4e+F743njTXWk2B4gN32WOUn5CwGGbqq5NfTw5UrRPMbk3qVf2E/2cPA/jQ3H7X37S7tY/CnwUzXen2dzHk63cxHG4q33owcbQR87EAYG4jz79pn9oL4h/tt/E24+JmpyXWh+H7NTZeE9FtpRH9ntFJ+duPmZ/lJPAyDgAYrsP24v2po/2otf0z4CfBaNdL+Efgdlt7CysFZItTuIsqJQODsAGADzznqcVxuiaRBZ2SxC2OMDaijhRjoKJSUXccG5Ho3xT+LnhP4NeGD8IfgXNGzlPJ1bW0+9Lnhtp/OvnrXtRk8pnd9zOGLsxOSx9e5NaN7OViYTbyxBy5PU+tc7q0Ml0CquTk8YrFJtq5pJcuxTtPjB8PvhjqUPir4laLHPFpn+p1A2294QeDjPIwK4/wDa7+NH7Gv7WdzYa7rv7RX9mtbw+XHa/YZGCnp2rP8Ailoc2r6RJo8rZMgIKuufzFeC+H/2bfGvi3Vrqx8E+EBPHCT50sdmSFJPuOfwrhxGVRrV1Vk9UdNHGRjCzNybwH+xJHIN/wC1kAvl7fNj0adtuPYLyas2Hgn/AIJuW7/bdW/aJ1e8mOSPL8NT5bjopI4PpTrL9iL4veIZP7Ps/DW9FIDlURQgPBYjrgVg6z+z/rmh3zaZYWgmaEGORliUqCOMZ6V1RpVkkozehnOVPd6nQTx/8EtdKl85PFHjnV5APngsYngyfq1MX4r/APBOjwxbyf8ACMfst+OPEEzZEcmreJRCgPY4HP6iuY/4Z/8AFso3C3jj5yQsS1o2H7OPiq4wZFI9wOla+wrT3kR7ajbRG7D+2V8LvDsItvAH7DuhWbJjybzU9UN0Vz3Ibg469Kh1D/goX+00IDb+DNN8HeGbdjtVLDwzb71Hucbvxpbb9mHWDHi6JUFRyT1rb039laxMqC8UMGAGWyRj86TwdL7TJhiJRfu6HJ6t+3H+3Lr+mf2dcfH68trXG2UWkJjYgjHBx39M1xOjfD/41fHvxIUuNY1XW9Rdvmu768aQAf7vOK+jvB/7Kdt4h8SWngvwvaCfULuQGOJFbCDONzDHQda/QD9nj9j/AMF/BLwbb+FtA0CN9SvE3alfzw7hKxHKoSOMVzLB4SlfkivuOyWNrTsmz4j/AGcf+CMPir4iywX3xY8ealaaaCC+mWQ2NIOpG70I4r7Rh1D9l/8AZd8OWPwzsJo9PtdIjSOx0mwUuVA5aRsAkyHrg9fSvS/jN44i/Z+8BppehCJtZ1WFltUJB8qMj731FfKFnpXivxX440TTPCWjNqvijWdYiksrdkDGRt6tk5zhR9MYrSlFpWscVSTlK7PsD4N+Jr/4u+IdG8J/D74VeJ1g1pg9nrGtaU1pbLFyTLlwMqMcjFcL+37+03pGgWc37EH7MupKYjKH8fa3ZuR5r5y1uuOCcgbm7YAwMZOz+3l8UPjd+z/pmj+A/D/7Tc+o+MtQ0pX1XT4YIkh06J1ClUaPnkZI4HSvlfwL4POj2r3NzM9xfzO0txdOuWdyclz659R6V2On7NJnNKetkX/CvhrTfDWlJEIvIht4ixYqflxyfrnPWsbWfFmoXl0WtJXt41JC+U4y/uf6VY8da9AbtdE024LogBmlj6OT1Uj2PH0rmbi4UMBsPA9K+RzbNXSnywZ72X4BuKlM2pk3KWZjhuxrLvrRSxwcZHUdqKK+r+0eRJsreD/hnqPxb8cweA/DsixzSkLcXkz4MKN1x6nHevoay8AeFvhWtr8K/h94UhZhj7Xds4Bkc/eYluSaKKxnJ8pmkrGP+0H4l1TwD4YTwV4W06CBroBdSvkRQ6qeqj8M8ivA28L2kR8yNBuY/MWUHdRRSw85Gj2Gt4dht9rmNM54woqaLTIXj8xLbJU8jI5oorqm2kKySNLSvAPiXW7qKLRtCE7TOqKk1xGoyTgY54617F4L/wCCfvxS8Tww3vizV7HQNPlTLvFILmbB9MZANFFc7bk9Slse6/CH9n74RfBcTxeC9Jml1OUCO41m/bdMx6HbjhQa67xLrulfD/wlceMNUWQi2iYwhSWLuen05oorCnOTnYa+I+OvHnxG17xdfXHjTxdqRmmiDeXDglY4+SAPf39a+kv2S/Bfhv8AY8/Z51n/AIKC/Fqwi1TXNVsWi8I6c0QkWCNlGw/LwrPjLEngDHeiiu6mlczmfK9zrnij4oeLtc+L3xE1R7vWtdunuLp3ORGnBEaAcBRnAFS+I9fj8NaclnbBzcXKDYx6KvcUUVx5tUnTwzcWa4KEZ1Vc46STEO+U5dnyzfWoXmXPIzRRX5XWqznVd2fcUoRVNWP/2Q==" vertex="1" parent="1">
          <mxGeometry x="40" y="160" width="177.73" height="150" as="geometry" />
        </mxCell>
        <mxCell id="4KgPTPjGrruZlJ7_TV73-46" value="" style="shape=cube;whiteSpace=wrap;html=1;boundedLbl=1;backgroundOutline=1;darkOpacity=0.05;darkOpacity2=0.1;size=48;rotation=90;fillColor=#dae8fc;strokeColor=#6c8ebf;opacity=80;" vertex="1" parent="1">
          <mxGeometry x="220" y="222.62" width="217.88" height="54.75" as="geometry" />
        </mxCell>
        <mxCell id="4KgPTPjGrruZlJ7_TV73-47" value="" style="endArrow=none;html=1;exitX=1.003;exitY=-0.012;exitDx=0;exitDy=0;exitPerimeter=0;" edge="1" parent="1" source="4KgPTPjGrruZlJ7_TV73-50">
          <mxGeometry width="50" height="50" relative="1" as="geometry">
            <mxPoint x="344" y="201.5" as="sourcePoint" />
            <mxPoint x="408" y="243.70000000000005" as="targetPoint" />
          </mxGeometry>
        </mxCell>
        <mxCell id="4KgPTPjGrruZlJ7_TV73-48" value="" style="endArrow=none;html=1;exitX=0.216;exitY=0.004;exitDx=0;exitDy=0;exitPerimeter=0;" edge="1" parent="1" source="4KgPTPjGrruZlJ7_TV73-50">
          <mxGeometry width="50" height="50" relative="1" as="geometry">
            <mxPoint x="332.6470000000001" y="233.22437000000014" as="sourcePoint" />
            <mxPoint x="408" y="243.5" as="targetPoint" />
          </mxGeometry>
        </mxCell>
        <mxCell id="4KgPTPjGrruZlJ7_TV73-49" value="" style="endArrow=none;html=1;" edge="1" parent="1">
          <mxGeometry width="50" height="50" relative="1" as="geometry">
            <mxPoint x="322" y="298.5" as="sourcePoint" />
            <mxPoint x="408" y="243.5" as="targetPoint" />
          </mxGeometry>
        </mxCell>
        <mxCell id="4KgPTPjGrruZlJ7_TV73-50" value="" style="shape=parallelogram;perimeter=parallelogramPerimeter;whiteSpace=wrap;html=1;size=0.21904878162202218;rotation=90;fillColor=none;flipH=1;aspect=fixed;" vertex="1" parent="1">
          <mxGeometry x="285.12" y="239.5" width="95.97" height="21" as="geometry" />
        </mxCell>
        <mxCell id="4KgPTPjGrruZlJ7_TV73-51" value="" style="rounded=1;whiteSpace=wrap;html=1;strokeColor=#000000;fillColor=none;fontSize=1;" vertex="1" parent="1">
          <mxGeometry x="539" y="186.5" width="20" height="101" as="geometry" />
        </mxCell>
        <mxCell id="4KgPTPjGrruZlJ7_TV73-155" style="rounded=0;orthogonalLoop=1;jettySize=auto;html=1;strokeWidth=1;endArrow=classic;endFill=1;endSize=1;startSize=1;entryX=0;entryY=0.5;entryDx=0;entryDy=0;" edge="1" parent="1" source="4KgPTPjGrruZlJ7_TV73-52" target="4KgPTPjGrruZlJ7_TV73-146">
          <mxGeometry relative="1" as="geometry">
            <mxPoint x="580" y="216.5" as="targetPoint" />
          </mxGeometry>
        </mxCell>
        <mxCell id="4KgPTPjGrruZlJ7_TV73-156" style="edgeStyle=none;rounded=0;orthogonalLoop=1;jettySize=auto;html=1;startSize=1;endArrow=classic;endFill=1;endSize=1;strokeWidth=1;entryX=0;entryY=0.5;entryDx=0;entryDy=0;" edge="1" parent="1" source="4KgPTPjGrruZlJ7_TV73-52" target="4KgPTPjGrruZlJ7_TV73-144">
          <mxGeometry relative="1" as="geometry" />
        </mxCell>
        <mxCell id="4KgPTPjGrruZlJ7_TV73-157" style="edgeStyle=none;rounded=0;orthogonalLoop=1;jettySize=auto;html=1;entryX=0;entryY=0.5;entryDx=0;entryDy=0;startSize=1;endArrow=classic;endFill=1;endSize=1;strokeWidth=1;" edge="1" parent="1" source="4KgPTPjGrruZlJ7_TV73-52" target="4KgPTPjGrruZlJ7_TV73-145">
          <mxGeometry relative="1" as="geometry" />
        </mxCell>
        <mxCell id="4KgPTPjGrruZlJ7_TV73-158" style="edgeStyle=none;rounded=0;orthogonalLoop=1;jettySize=auto;html=1;entryX=0;entryY=0.5;entryDx=0;entryDy=0;startSize=1;endArrow=classic;endFill=1;endSize=1;strokeWidth=1;" edge="1" parent="1" source="4KgPTPjGrruZlJ7_TV73-52" target="4KgPTPjGrruZlJ7_TV73-148">
          <mxGeometry relative="1" as="geometry" />
        </mxCell>
        <mxCell id="4KgPTPjGrruZlJ7_TV73-52" value="" style="ellipse;whiteSpace=wrap;html=1;aspect=fixed;strokeColor=#000000;fillColor=#dae8fc;fontSize=1;" vertex="1" parent="1">
          <mxGeometry x="542" y="191" width="14" height="14" as="geometry" />
        </mxCell>
        <mxCell id="4KgPTPjGrruZlJ7_TV73-159" style="edgeStyle=none;rounded=0;orthogonalLoop=1;jettySize=auto;html=1;entryX=0;entryY=0.5;entryDx=0;entryDy=0;startSize=1;endArrow=classic;endFill=1;endSize=1;strokeWidth=1;" edge="1" parent="1" source="4KgPTPjGrruZlJ7_TV73-53" target="4KgPTPjGrruZlJ7_TV73-144">
          <mxGeometry relative="1" as="geometry" />
        </mxCell>
        <mxCell id="4KgPTPjGrruZlJ7_TV73-160" style="edgeStyle=none;rounded=0;orthogonalLoop=1;jettySize=auto;html=1;startSize=1;endArrow=classic;endFill=1;endSize=1;strokeWidth=1;" edge="1" parent="1" source="4KgPTPjGrruZlJ7_TV73-53" target="4KgPTPjGrruZlJ7_TV73-145">
          <mxGeometry relative="1" as="geometry" />
        </mxCell>
        <mxCell id="4KgPTPjGrruZlJ7_TV73-161" style="edgeStyle=none;rounded=0;orthogonalLoop=1;jettySize=auto;html=1;entryX=0;entryY=0.5;entryDx=0;entryDy=0;startSize=1;endArrow=classic;endFill=1;endSize=1;strokeWidth=1;" edge="1" parent="1" source="4KgPTPjGrruZlJ7_TV73-53" target="4KgPTPjGrruZlJ7_TV73-146">
          <mxGeometry relative="1" as="geometry" />
        </mxCell>
        <mxCell id="4KgPTPjGrruZlJ7_TV73-162" style="edgeStyle=none;rounded=0;orthogonalLoop=1;jettySize=auto;html=1;entryX=0;entryY=0.5;entryDx=0;entryDy=0;startSize=1;endArrow=classic;endFill=1;endSize=1;strokeWidth=1;" edge="1" parent="1" source="4KgPTPjGrruZlJ7_TV73-53" target="4KgPTPjGrruZlJ7_TV73-148">
          <mxGeometry relative="1" as="geometry" />
        </mxCell>
        <mxCell id="4KgPTPjGrruZlJ7_TV73-53" value="" style="ellipse;whiteSpace=wrap;html=1;aspect=fixed;strokeColor=#000000;fillColor=#dae8fc;fontSize=1;" vertex="1" parent="1">
          <mxGeometry x="542" y="210.5" width="14" height="14" as="geometry" />
        </mxCell>
        <mxCell id="4KgPTPjGrruZlJ7_TV73-163" style="edgeStyle=none;rounded=0;orthogonalLoop=1;jettySize=auto;html=1;entryX=0;entryY=0.5;entryDx=0;entryDy=0;startSize=1;endArrow=classic;endFill=1;endSize=1;strokeWidth=1;" edge="1" parent="1" source="4KgPTPjGrruZlJ7_TV73-54" target="4KgPTPjGrruZlJ7_TV73-144">
          <mxGeometry relative="1" as="geometry" />
        </mxCell>
        <mxCell id="4KgPTPjGrruZlJ7_TV73-164" style="edgeStyle=none;rounded=0;orthogonalLoop=1;jettySize=auto;html=1;entryX=0;entryY=0.5;entryDx=0;entryDy=0;startSize=1;endArrow=classic;endFill=1;endSize=1;strokeWidth=1;" edge="1" parent="1" source="4KgPTPjGrruZlJ7_TV73-54" target="4KgPTPjGrruZlJ7_TV73-145">
          <mxGeometry relative="1" as="geometry" />
        </mxCell>
        <mxCell id="4KgPTPjGrruZlJ7_TV73-165" style="edgeStyle=none;rounded=0;orthogonalLoop=1;jettySize=auto;html=1;entryX=0;entryY=0.5;entryDx=0;entryDy=0;startSize=1;endArrow=classic;endFill=1;endSize=1;strokeWidth=1;" edge="1" parent="1" source="4KgPTPjGrruZlJ7_TV73-54" target="4KgPTPjGrruZlJ7_TV73-146">
          <mxGeometry relative="1" as="geometry" />
        </mxCell>
        <mxCell id="4KgPTPjGrruZlJ7_TV73-166" style="edgeStyle=none;rounded=0;orthogonalLoop=1;jettySize=auto;html=1;entryX=0;entryY=0.5;entryDx=0;entryDy=0;startSize=1;endArrow=classic;endFill=1;endSize=1;strokeWidth=1;" edge="1" parent="1" source="4KgPTPjGrruZlJ7_TV73-54" target="4KgPTPjGrruZlJ7_TV73-148">
          <mxGeometry relative="1" as="geometry" />
        </mxCell>
        <mxCell id="4KgPTPjGrruZlJ7_TV73-54" value="" style="ellipse;whiteSpace=wrap;html=1;aspect=fixed;strokeColor=#000000;fillColor=#dae8fc;fontSize=1;" vertex="1" parent="1">
          <mxGeometry x="542" y="230" width="14" height="14" as="geometry" />
        </mxCell>
        <mxCell id="4KgPTPjGrruZlJ7_TV73-55" value="&lt;font face=&quot;Times New Roman&quot; style=&quot;font-size: 23px&quot;&gt;...&lt;/font&gt;" style="text;html=1;strokeColor=none;fillColor=none;align=center;verticalAlign=middle;whiteSpace=wrap;rounded=0;fontSize=1;horizontal=0;" vertex="1" parent="1">
          <mxGeometry x="538.5" y="247" width="5.58" height="20" as="geometry" />
        </mxCell>
        <mxCell id="4KgPTPjGrruZlJ7_TV73-167" style="edgeStyle=none;rounded=0;orthogonalLoop=1;jettySize=auto;html=1;entryX=0;entryY=0.5;entryDx=0;entryDy=0;startSize=1;endArrow=classic;endFill=1;endSize=1;strokeWidth=1;" edge="1" parent="1" source="4KgPTPjGrruZlJ7_TV73-56" target="4KgPTPjGrruZlJ7_TV73-144">
          <mxGeometry relative="1" as="geometry" />
        </mxCell>
        <mxCell id="4KgPTPjGrruZlJ7_TV73-168" style="edgeStyle=none;rounded=0;orthogonalLoop=1;jettySize=auto;html=1;entryX=0;entryY=0.5;entryDx=0;entryDy=0;startSize=1;endArrow=classic;endFill=1;endSize=1;strokeWidth=1;" edge="1" parent="1" source="4KgPTPjGrruZlJ7_TV73-56" target="4KgPTPjGrruZlJ7_TV73-145">
          <mxGeometry relative="1" as="geometry" />
        </mxCell>
        <mxCell id="4KgPTPjGrruZlJ7_TV73-169" style="edgeStyle=none;rounded=0;orthogonalLoop=1;jettySize=auto;html=1;entryX=0;entryY=0.5;entryDx=0;entryDy=0;startSize=1;endArrow=classic;endFill=1;endSize=1;strokeWidth=1;" edge="1" parent="1" source="4KgPTPjGrruZlJ7_TV73-56" target="4KgPTPjGrruZlJ7_TV73-146">
          <mxGeometry relative="1" as="geometry" />
        </mxCell>
        <mxCell id="4KgPTPjGrruZlJ7_TV73-170" style="edgeStyle=none;rounded=0;orthogonalLoop=1;jettySize=auto;html=1;startSize=1;endArrow=classic;endFill=1;endSize=1;strokeWidth=1;" edge="1" parent="1" source="4KgPTPjGrruZlJ7_TV73-56" target="4KgPTPjGrruZlJ7_TV73-148">
          <mxGeometry relative="1" as="geometry" />
        </mxCell>
        <mxCell id="4KgPTPjGrruZlJ7_TV73-56" value="" style="ellipse;whiteSpace=wrap;html=1;aspect=fixed;strokeColor=#000000;fillColor=#dae8fc;fontSize=1;" vertex="1" parent="1">
          <mxGeometry x="542" y="270" width="14" height="14" as="geometry" />
        </mxCell>
        <mxCell id="4KgPTPjGrruZlJ7_TV73-57" value="" style="endArrow=block;html=1;fontSize=1;endSize=3;startSize=2;endFill=1;" edge="1" parent="1">
          <mxGeometry width="50" height="50" relative="1" as="geometry">
            <mxPoint x="520" y="236.93000000000006" as="sourcePoint" />
            <mxPoint x="539" y="236.93000000000006" as="targetPoint" />
          </mxGeometry>
        </mxCell>
        <mxCell id="4KgPTPjGrruZlJ7_TV73-83" value="" style="endArrow=none;html=1;exitX=0.779;exitY=0.998;exitDx=0;exitDy=0;exitPerimeter=0;" edge="1" parent="1" source="4KgPTPjGrruZlJ7_TV73-50">
          <mxGeometry width="50" height="50" relative="1" as="geometry">
            <mxPoint x="353.60499999999996" y="212.015" as="sourcePoint" />
            <mxPoint x="408" y="243.5" as="targetPoint" />
          </mxGeometry>
        </mxCell>
        <mxCell id="4KgPTPjGrruZlJ7_TV73-84" value="" style="shape=cube;whiteSpace=wrap;html=1;boundedLbl=1;backgroundOutline=1;darkOpacity=0.05;darkOpacity2=0.1;size=29;rotation=90;fillColor=#dae8fc;strokeColor=#6c8ebf;opacity=80;" vertex="1" parent="1">
          <mxGeometry x="332" y="219" width="135" height="46" as="geometry" />
        </mxCell>
        <mxCell id="4KgPTPjGrruZlJ7_TV73-85" value="" style="shape=parallelogram;perimeter=parallelogramPerimeter;whiteSpace=wrap;html=1;size=0.21904878162202218;rotation=90;fillColor=none;flipH=1;aspect=fixed;strokeColor=#000000;" vertex="1" parent="1">
          <mxGeometry x="383.09000000000003" y="237.5" width="50.27" height="11" as="geometry" />
        </mxCell>
        <mxCell id="4KgPTPjGrruZlJ7_TV73-86" value="" style="endArrow=none;html=1;" edge="1" parent="1">
          <mxGeometry width="50" height="50" relative="1" as="geometry">
            <mxPoint x="414" y="217.5" as="sourcePoint" />
            <mxPoint x="468.99999999999994" y="241.5" as="targetPoint" />
          </mxGeometry>
        </mxCell>
        <mxCell id="4KgPTPjGrruZlJ7_TV73-87" value="" style="endArrow=none;html=1;exitX=0.773;exitY=0.99;exitDx=0;exitDy=0;exitPerimeter=0;" edge="1" parent="1" source="4KgPTPjGrruZlJ7_TV73-85">
          <mxGeometry width="50" height="50" relative="1" as="geometry">
            <mxPoint x="423.72500000000014" y="227.86500000000012" as="sourcePoint" />
            <mxPoint x="468.99999999999994" y="241.5" as="targetPoint" />
          </mxGeometry>
        </mxCell>
        <mxCell id="4KgPTPjGrruZlJ7_TV73-88" value="" style="endArrow=none;html=1;exitX=1;exitY=1;exitDx=0;exitDy=0;" edge="1" parent="1" source="4KgPTPjGrruZlJ7_TV73-85">
          <mxGeometry width="50" height="50" relative="1" as="geometry">
            <mxPoint x="412.83500000000004" y="239.27629000000002" as="sourcePoint" />
            <mxPoint x="468.99999999999994" y="241.5" as="targetPoint" />
          </mxGeometry>
        </mxCell>
        <mxCell id="4KgPTPjGrruZlJ7_TV73-89" value="" style="endArrow=none;html=1;exitX=0.218;exitY=-0.006;exitDx=0;exitDy=0;exitPerimeter=0;" edge="1" parent="1" source="4KgPTPjGrruZlJ7_TV73-85">
          <mxGeometry width="50" height="50" relative="1" as="geometry">
            <mxPoint x="412.72500000000014" y="278.1349999999999" as="sourcePoint" />
            <mxPoint x="468.99999999999994" y="241.5" as="targetPoint" />
          </mxGeometry>
        </mxCell>
        <mxCell id="4KgPTPjGrruZlJ7_TV73-90" value="" style="shape=cube;whiteSpace=wrap;html=1;boundedLbl=1;backgroundOutline=1;darkOpacity=0.05;darkOpacity2=0.1;size=17;rotation=90;fillColor=#dae8fc;strokeColor=#6c8ebf;opacity=80;" vertex="1" parent="1">
          <mxGeometry x="425" y="221" width="68" height="36" as="geometry" />
        </mxCell>
        <mxCell id="4KgPTPjGrruZlJ7_TV73-91" value="" style="shape=parallelogram;perimeter=parallelogramPerimeter;whiteSpace=wrap;html=1;size=0.21904878162202218;rotation=90;fillColor=none;flipH=1;aspect=fixed;strokeColor=#000000;" vertex="1" parent="1">
          <mxGeometry x="454.99999999999994" y="236.5" width="27.42" height="6" as="geometry" />
        </mxCell>
        <mxCell id="4KgPTPjGrruZlJ7_TV73-92" value="" style="endArrow=none;html=1;exitX=0;exitY=0;exitDx=0;exitDy=0;" edge="1" parent="1" source="4KgPTPjGrruZlJ7_TV73-91">
          <mxGeometry width="50" height="50" relative="1" as="geometry">
            <mxPoint x="424" y="227.5" as="sourcePoint" />
            <mxPoint x="514" y="237.5" as="targetPoint" />
          </mxGeometry>
        </mxCell>
        <mxCell id="4KgPTPjGrruZlJ7_TV73-93" value="" style="endArrow=none;html=1;exitX=0.779;exitY=0.983;exitDx=0;exitDy=0;exitPerimeter=0;" edge="1" parent="1" source="4KgPTPjGrruZlJ7_TV73-91">
          <mxGeometry width="50" height="50" relative="1" as="geometry">
            <mxPoint x="481.71" y="235.78999999999996" as="sourcePoint" />
            <mxPoint x="514" y="237.5" as="targetPoint" />
          </mxGeometry>
        </mxCell>
        <mxCell id="4KgPTPjGrruZlJ7_TV73-94" value="" style="endArrow=none;html=1;exitX=0.224;exitY=-0.014;exitDx=0;exitDy=0;exitPerimeter=0;" edge="1" parent="1" source="4KgPTPjGrruZlJ7_TV73-91">
          <mxGeometry width="50" height="50" relative="1" as="geometry">
            <mxPoint x="475.392" y="263.7035599999999" as="sourcePoint" />
            <mxPoint x="514" y="237.5" as="targetPoint" />
          </mxGeometry>
        </mxCell>
        <mxCell id="4KgPTPjGrruZlJ7_TV73-95" value="" style="endArrow=none;html=1;exitX=-0.018;exitY=1.053;exitDx=0;exitDy=0;exitPerimeter=0;" edge="1" parent="1" source="4KgPTPjGrruZlJ7_TV73-91">
          <mxGeometry width="50" height="50" relative="1" as="geometry">
            <mxPoint x="464.99999999999994" y="249.5" as="sourcePoint" />
            <mxPoint x="514" y="237.5" as="targetPoint" />
          </mxGeometry>
        </mxCell>
        <mxCell id="4KgPTPjGrruZlJ7_TV73-96" value="" style="shape=cube;whiteSpace=wrap;html=1;boundedLbl=1;backgroundOutline=1;darkOpacity=0.05;darkOpacity2=0.1;size=11;rotation=90;fillColor=#dae8fc;strokeColor=#6c8ebf;opacity=80;" vertex="1" parent="1">
          <mxGeometry x="482.42" y="221" width="45" height="30" as="geometry" />
        </mxCell>
        <mxCell id="4KgPTPjGrruZlJ7_TV73-97" value="" style="shape=parallelogram;perimeter=parallelogramPerimeter;whiteSpace=wrap;html=1;size=0.21904878162202218;rotation=90;fillColor=none;flipH=1;aspect=fixed;strokeColor=#000000;opacity=90;" vertex="1" parent="1">
          <mxGeometry x="504.4200000000001" y="234.5" width="19" height="4.16" as="geometry" />
        </mxCell>
        <mxCell id="4KgPTPjGrruZlJ7_TV73-143" value="" style="rounded=1;whiteSpace=wrap;html=1;strokeColor=#000000;fillColor=none;fontSize=1;" vertex="1" parent="1">
          <mxGeometry x="590.5" y="186.5" width="20" height="101" as="geometry" />
        </mxCell>
        <mxCell id="4KgPTPjGrruZlJ7_TV73-171" style="edgeStyle=none;rounded=0;orthogonalLoop=1;jettySize=auto;html=1;entryX=0;entryY=0.5;entryDx=0;entryDy=0;startSize=1;endArrow=classic;endFill=1;endSize=1;strokeWidth=1;" edge="1" parent="1" source="4KgPTPjGrruZlJ7_TV73-144" target="4KgPTPjGrruZlJ7_TV73-150">
          <mxGeometry relative="1" as="geometry" />
        </mxCell>
        <mxCell id="4KgPTPjGrruZlJ7_TV73-175" style="edgeStyle=none;rounded=0;orthogonalLoop=1;jettySize=auto;html=1;entryX=0;entryY=0.5;entryDx=0;entryDy=0;startSize=1;endArrow=classic;endFill=1;endSize=1;strokeWidth=1;" edge="1" parent="1" source="4KgPTPjGrruZlJ7_TV73-144" target="4KgPTPjGrruZlJ7_TV73-151">
          <mxGeometry relative="1" as="geometry" />
        </mxCell>
        <mxCell id="4KgPTPjGrruZlJ7_TV73-144" value="" style="ellipse;whiteSpace=wrap;html=1;aspect=fixed;strokeColor=#000000;fillColor=#dae8fc;fontSize=1;" vertex="1" parent="1">
          <mxGeometry x="593.5" y="191" width="14" height="14" as="geometry" />
        </mxCell>
        <mxCell id="4KgPTPjGrruZlJ7_TV73-172" style="edgeStyle=none;rounded=0;orthogonalLoop=1;jettySize=auto;html=1;startSize=1;endArrow=classic;endFill=1;endSize=1;strokeWidth=1;" edge="1" parent="1" source="4KgPTPjGrruZlJ7_TV73-145" target="4KgPTPjGrruZlJ7_TV73-150">
          <mxGeometry relative="1" as="geometry" />
        </mxCell>
        <mxCell id="4KgPTPjGrruZlJ7_TV73-177" style="edgeStyle=none;rounded=0;orthogonalLoop=1;jettySize=auto;html=1;entryX=0;entryY=0.5;entryDx=0;entryDy=0;startSize=1;endArrow=classic;endFill=1;endSize=1;strokeWidth=1;" edge="1" parent="1" source="4KgPTPjGrruZlJ7_TV73-145" target="4KgPTPjGrruZlJ7_TV73-151">
          <mxGeometry relative="1" as="geometry" />
        </mxCell>
        <mxCell id="4KgPTPjGrruZlJ7_TV73-145" value="" style="ellipse;whiteSpace=wrap;html=1;aspect=fixed;strokeColor=#000000;fillColor=#dae8fc;fontSize=1;" vertex="1" parent="1">
          <mxGeometry x="593.5" y="210.5" width="14" height="14" as="geometry" />
        </mxCell>
        <mxCell id="4KgPTPjGrruZlJ7_TV73-173" style="edgeStyle=none;rounded=0;orthogonalLoop=1;jettySize=auto;html=1;entryX=0;entryY=0.5;entryDx=0;entryDy=0;startSize=1;endArrow=classic;endFill=1;endSize=1;strokeWidth=1;" edge="1" parent="1" source="4KgPTPjGrruZlJ7_TV73-146" target="4KgPTPjGrruZlJ7_TV73-150">
          <mxGeometry relative="1" as="geometry" />
        </mxCell>
        <mxCell id="4KgPTPjGrruZlJ7_TV73-178" style="edgeStyle=none;rounded=0;orthogonalLoop=1;jettySize=auto;html=1;entryX=0;entryY=0.5;entryDx=0;entryDy=0;startSize=1;endArrow=classic;endFill=1;endSize=1;strokeWidth=1;" edge="1" parent="1" source="4KgPTPjGrruZlJ7_TV73-146" target="4KgPTPjGrruZlJ7_TV73-151">
          <mxGeometry relative="1" as="geometry" />
        </mxCell>
        <mxCell id="4KgPTPjGrruZlJ7_TV73-146" value="" style="ellipse;whiteSpace=wrap;html=1;aspect=fixed;strokeColor=#000000;fillColor=#dae8fc;fontSize=1;" vertex="1" parent="1">
          <mxGeometry x="593.5" y="230" width="14" height="14" as="geometry" />
        </mxCell>
        <mxCell id="4KgPTPjGrruZlJ7_TV73-147" value="&lt;font face=&quot;Times New Roman&quot; style=&quot;font-size: 23px&quot;&gt;...&lt;/font&gt;" style="text;html=1;strokeColor=none;fillColor=none;align=center;verticalAlign=middle;whiteSpace=wrap;rounded=0;fontSize=1;horizontal=0;" vertex="1" parent="1">
          <mxGeometry x="590" y="247" width="5.58" height="20" as="geometry" />
        </mxCell>
        <mxCell id="4KgPTPjGrruZlJ7_TV73-174" style="edgeStyle=none;rounded=0;orthogonalLoop=1;jettySize=auto;html=1;entryX=0;entryY=0.5;entryDx=0;entryDy=0;startSize=1;endArrow=classic;endFill=1;endSize=1;strokeWidth=1;" edge="1" parent="1" source="4KgPTPjGrruZlJ7_TV73-148" target="4KgPTPjGrruZlJ7_TV73-150">
          <mxGeometry relative="1" as="geometry" />
        </mxCell>
        <mxCell id="4KgPTPjGrruZlJ7_TV73-179" style="edgeStyle=none;rounded=0;orthogonalLoop=1;jettySize=auto;html=1;entryX=0;entryY=0.5;entryDx=0;entryDy=0;startSize=1;endArrow=classic;endFill=1;endSize=1;strokeWidth=1;" edge="1" parent="1" source="4KgPTPjGrruZlJ7_TV73-148" target="4KgPTPjGrruZlJ7_TV73-151">
          <mxGeometry relative="1" as="geometry" />
        </mxCell>
        <mxCell id="4KgPTPjGrruZlJ7_TV73-148" value="" style="ellipse;whiteSpace=wrap;html=1;aspect=fixed;strokeColor=#000000;fillColor=#dae8fc;fontSize=1;" vertex="1" parent="1">
          <mxGeometry x="593.5" y="270" width="14" height="14" as="geometry" />
        </mxCell>
        <mxCell id="4KgPTPjGrruZlJ7_TV73-149" value="" style="rounded=1;whiteSpace=wrap;html=1;strokeColor=#000000;fillColor=none;fontSize=1;" vertex="1" parent="1">
          <mxGeometry x="640" y="212" width="20" height="48" as="geometry" />
        </mxCell>
        <mxCell id="4KgPTPjGrruZlJ7_TV73-150" value="" style="ellipse;whiteSpace=wrap;html=1;aspect=fixed;strokeColor=#000000;fillColor=#dae8fc;fontSize=1;" vertex="1" parent="1">
          <mxGeometry x="643" y="216.5" width="14" height="14" as="geometry" />
        </mxCell>
        <mxCell id="4KgPTPjGrruZlJ7_TV73-151" value="" style="ellipse;whiteSpace=wrap;html=1;aspect=fixed;strokeColor=#000000;fillColor=#dae8fc;fontSize=1;" vertex="1" parent="1">
          <mxGeometry x="643" y="236" width="14" height="14" as="geometry" />
        </mxCell>
        <mxCell id="4KgPTPjGrruZlJ7_TV73-187" style="edgeStyle=orthogonalEdgeStyle;curved=1;rounded=0;orthogonalLoop=1;jettySize=auto;html=1;startSize=1;endArrow=classic;endFill=1;endSize=1;strokeWidth=1;fillColor=#d80073;strokeColor=#A50040;" edge="1" parent="1" source="4KgPTPjGrruZlJ7_TV73-181" target="4KgPTPjGrruZlJ7_TV73-185">
          <mxGeometry relative="1" as="geometry" />
        </mxCell>
        <mxCell id="4KgPTPjGrruZlJ7_TV73-188" style="edgeStyle=orthogonalEdgeStyle;curved=1;rounded=0;orthogonalLoop=1;jettySize=auto;html=1;startSize=1;endArrow=classic;endFill=1;endSize=1;strokeWidth=1;fillColor=#1ba1e2;strokeColor=#006EAF;" edge="1" parent="1" source="4KgPTPjGrruZlJ7_TV73-181" target="4KgPTPjGrruZlJ7_TV73-186">
          <mxGeometry relative="1" as="geometry" />
        </mxCell>
        <mxCell id="4KgPTPjGrruZlJ7_TV73-181" value="" style="shape=sumEllipse;perimeter=ellipsePerimeter;whiteSpace=wrap;html=1;backgroundOutline=1;aspect=fixed;" vertex="1" parent="1">
          <mxGeometry x="680" y="224" width="20" height="20" as="geometry" />
        </mxCell>
        <mxCell id="4KgPTPjGrruZlJ7_TV73-182" value="" style="endArrow=block;html=1;fontSize=1;endSize=3;startSize=2;endFill=1;" edge="1" parent="1">
          <mxGeometry width="50" height="50" relative="1" as="geometry">
            <mxPoint x="660" y="234.50000000000006" as="sourcePoint" />
            <mxPoint x="679" y="234.50000000000006" as="targetPoint" />
          </mxGeometry>
        </mxCell>
        <mxCell id="4KgPTPjGrruZlJ7_TV73-183" value="&lt;font face=&quot;Cookie&quot;&gt;argmax&lt;/font&gt;" style="text;html=1;align=center;verticalAlign=middle;resizable=0;points=[];autosize=1;" vertex="1" parent="1">
          <mxGeometry x="670" y="239.5" width="40" height="20" as="geometry" />
        </mxCell>
        <mxCell id="4KgPTPjGrruZlJ7_TV73-185" value="&lt;font face=&quot;Times New Roman&quot;&gt;&lt;b&gt;1&lt;/b&gt;&lt;/font&gt;" style="text;html=1;align=center;verticalAlign=middle;resizable=0;points=[];autosize=1;" vertex="1" parent="1">
          <mxGeometry x="730" y="207.5" width="20" height="20" as="geometry" />
        </mxCell>
        <mxCell id="4KgPTPjGrruZlJ7_TV73-186" value="&lt;font face=&quot;Times New Roman&quot;&gt;&lt;b&gt;0&lt;/b&gt;&lt;/font&gt;" style="text;html=1;align=center;verticalAlign=middle;resizable=0;points=[];autosize=1;" vertex="1" parent="1">
          <mxGeometry x="730" y="240.5" width="20" height="20" as="geometry" />
        </mxCell>
      </root>
    </mxGraphModel>
  </diagram>
</mxfile>
